<svg xmlns="http://www.w3.org/2000/svg" xmlns:xlink="http://www.w3.org/1999/xlink" width="900" zoomAndPan="magnify" viewBox="0 0 675 187.499995" height="250" preserveAspectRatio="xMidYMid meet" version="1.0"><defs><g/></defs><g fill="#1e5175" fill-opacity="1"><g transform="translate(8.186626, 86.54345)"><g/></g></g><g fill="#1e5175" fill-opacity="1"><g transform="translate(27.174142, 86.54345)"><g/></g></g><g fill="#1e5175" fill-opacity="1"><g transform="translate(46.161658, 86.54345)"><g/></g></g><g fill="#1e5175" fill-opacity="1"><g transform="translate(65.156703, 86.54345)"><g><path d="M 20.207031 -40.601562 C 19.980469 -40.601562 19.792969 -40.597656 19.644531 -40.582031 L 19.652344 -40.589844 C 20.390625 -40.757812 21.132812 -41.15625 21.878906 -41.785156 C 22.769531 -42.535156 23.390625 -43.421875 23.742188 -44.445312 C 23.886719 -44.859375 23.957031 -45.1875 23.957031 -45.433594 L 23.957031 -32.820312 C 23.957031 -27.769531 22.671875 -23.753906 20.101562 -20.769531 C 17.761719 -18.054688 14.472656 -16.148438 10.234375 -15.050781 L 8.003906 -23.667969 L 9.84375 -32.375 C 14.117188 -31.472656 17.492188 -29.613281 19.96875 -26.804688 C 22.628906 -23.789062 23.957031 -19.738281 23.957031 -14.648438 L 23.957031 -2.035156 C 23.957031 -2.308594 23.878906 -2.667969 23.722656 -3.105469 C 23.355469 -4.136719 22.71875 -5.027344 21.808594 -5.769531 C 21.101562 -6.351562 20.402344 -6.71875 19.710938 -6.875 C 19.671875 -6.882812 19.644531 -6.890625 19.621094 -6.894531 C 19.632812 -6.890625 19.65625 -6.890625 19.683594 -6.886719 C 19.824219 -6.875 19.996094 -6.867188 20.207031 -6.867188 L 29.109375 -6.867188 L 29.109375 18.394531 L 20.207031 18.394531 C 15.148438 18.394531 11.003906 17.785156 7.773438 16.566406 C 3.472656 14.945312 0.371094 12.347656 -1.542969 8.777344 C -3.101562 5.859375 -3.882812 2.371094 -3.882812 -1.695312 L -3.882812 -13.835938 C -3.882812 -14.222656 -3.894531 -14.464844 -3.914062 -14.5625 C -3.792969 -14 -3.496094 -13.402344 -3.019531 -12.765625 C -2.238281 -11.726562 -1.289062 -11.011719 -0.164062 -10.617188 C 0.09375 -10.527344 0.332031 -10.46875 0.550781 -10.4375 C 0.59375 -10.429688 0.628906 -10.425781 0.65625 -10.425781 C 0.648438 -10.425781 0.632812 -10.425781 0.609375 -10.425781 L -8.289062 -10.425781 L -8.289062 -36.976562 L 0.609375 -36.976562 C 0.628906 -36.976562 0.640625 -36.976562 0.640625 -36.976562 C 0.605469 -36.972656 0.566406 -36.96875 0.515625 -36.960938 C 0.285156 -36.929688 0.0351562 -36.863281 -0.238281 -36.765625 C -1.371094 -36.359375 -2.320312 -35.628906 -3.085938 -34.578125 C -3.53125 -33.972656 -3.804688 -33.40625 -3.917969 -32.882812 C -3.894531 -32.992188 -3.882812 -33.242188 -3.882812 -33.636719 L -3.882812 -45.773438 C -3.882812 -49.886719 -3.101562 -53.398438 -1.542969 -56.316406 C 0.382812 -59.910156 3.511719 -62.507812 7.847656 -64.097656 C 11.054688 -65.277344 15.175781 -65.863281 20.207031 -65.863281 L 29.109375 -65.863281 L 29.109375 -40.601562 Z M 20.207031 -58.40625 L 20.207031 -49.503906 L 11.308594 -49.503906 L 11.308594 -56.964844 L 20.207031 -56.964844 L 20.207031 -48.0625 C 17.285156 -48.0625 15.210938 -47.835938 13.988281 -47.386719 C 13.832031 -47.332031 13.703125 -47.277344 13.609375 -47.222656 L 13.609375 -47.230469 C 13.816406 -47.394531 13.996094 -47.621094 14.15625 -47.914062 L 14.152344 -47.902344 C 14.121094 -47.8125 14.09375 -47.695312 14.0625 -47.554688 C 13.96875 -47.082031 13.917969 -46.488281 13.917969 -45.773438 L 13.917969 -33.636719 C 13.917969 -29.667969 13.042969 -26.480469 11.292969 -24.082031 C 9.914062 -22.191406 8.078125 -20.835938 5.78125 -20.011719 C 4.226562 -19.453125 2.503906 -19.171875 0.609375 -19.171875 L 0.609375 -28.074219 L 9.511719 -28.074219 L 9.511719 -19.328125 L 0.609375 -19.328125 L 0.609375 -28.226562 C 2.476562 -28.226562 4.175781 -27.960938 5.707031 -27.425781 C 7.996094 -26.625 9.835938 -25.300781 11.222656 -23.445312 C 13.019531 -21.050781 13.917969 -17.847656 13.917969 -13.835938 L 13.917969 -1.695312 C 13.917969 -1.011719 13.964844 -0.441406 14.058594 0.015625 C 14.101562 0.214844 14.132812 0.335938 14.15625 0.378906 C 14.003906 0.0976562 13.832031 -0.121094 13.640625 -0.273438 C 13.625 -0.285156 13.617188 -0.292969 13.609375 -0.296875 C 13.621094 -0.289062 13.640625 -0.277344 13.664062 -0.265625 C 13.765625 -0.207031 13.898438 -0.148438 14.0625 -0.0898438 C 15.265625 0.367188 17.3125 0.59375 20.207031 0.59375 L 20.207031 9.492188 L 11.308594 9.492188 L 11.308594 2.035156 L 20.207031 2.035156 L 20.207031 10.9375 C 16.144531 10.9375 12.921875 9.960938 10.535156 8.007812 C 8.882812 6.65625 7.6875 4.933594 6.945312 2.847656 C 6.417969 1.359375 6.152344 -0.265625 6.152344 -2.035156 L 6.152344 -14.648438 C 6.152344 -15.253906 6.117188 -15.6875 6.042969 -15.945312 C 6.117188 -15.6875 6.308594 -15.382812 6.613281 -15.035156 C 6.757812 -14.871094 6.882812 -14.761719 6.984375 -14.707031 C 6.820312 -14.792969 6.546875 -14.878906 6.160156 -14.957031 L 5.769531 -32.285156 C 6.28125 -32.417969 6.664062 -32.550781 6.917969 -32.6875 C 6.933594 -32.699219 6.945312 -32.703125 6.953125 -32.710938 C 6.9375 -32.699219 6.921875 -32.6875 6.902344 -32.671875 C 6.808594 -32.597656 6.714844 -32.507812 6.617188 -32.394531 C 6.304688 -32.03125 6.113281 -31.71875 6.042969 -31.460938 C 6.117188 -31.734375 6.152344 -32.191406 6.152344 -32.820312 L 6.152344 -45.433594 C 6.152344 -47.171875 6.40625 -48.773438 6.910156 -50.238281 C 7.621094 -52.3125 8.785156 -54.03125 10.398438 -55.390625 C 12.78125 -57.402344 16.050781 -58.40625 20.207031 -58.40625 Z M 20.207031 -58.40625 "/></g></g></g><g fill="#1e5175" fill-opacity="1"><g transform="translate(90.043812, 86.54345)"><g/></g></g><g fill="#1e5175" fill-opacity="1"><g transform="translate(109.031328, 86.54345)"><g><path d="M 24.429688 -46.996094 L 24.429688 -8.816406 L 15.53125 -8.816406 L 15.53125 -17.71875 L 43.980469 -17.71875 L 40.5 8.902344 L -4.492188 8.902344 L -4.492188 -55.894531 L 24.429688 -55.894531 Z M 6.628906 -46.996094 L 15.53125 -46.996094 L 15.53125 -38.09375 L 4.40625 -38.09375 L 4.40625 -46.996094 L 13.308594 -46.996094 L 13.308594 0 L 4.40625 0 L 4.40625 -8.902344 L 32.6875 -8.902344 L 32.6875 0 L 23.859375 -1.152344 L 25.011719 -9.96875 L 33.839844 -8.816406 L 33.839844 0.0859375 L 6.628906 0.0859375 Z M 6.628906 -46.996094 "/></g></g></g><g fill="#1e5175" fill-opacity="1"><g transform="translate(146.734783, 86.54345)"><g><path d="M 42.039062 -45.714844 L 39.777344 -30.160156 L 15.53125 -30.160156 L 15.53125 -39.0625 L 24.429688 -39.0625 L 24.429688 -27.804688 L 15.53125 -27.804688 L 15.53125 -36.703125 L 38.875 -36.703125 L 38.875 -11.105469 L 15.53125 -11.105469 L 15.53125 -20.003906 L 24.429688 -20.003906 L 24.429688 -8.003906 L 15.53125 -8.003906 L 15.53125 -16.902344 L 42.128906 -16.902344 L 42.128906 8.902344 L -4.492188 8.902344 L -4.492188 -55.894531 L 43.515625 -55.894531 Z M 24.421875 -48.273438 L 33.230469 -46.996094 L 33.230469 -38.09375 L 4.40625 -38.09375 L 4.40625 -46.996094 L 13.308594 -46.996094 L 13.308594 0 L 4.40625 0 L 4.40625 -8.902344 L 33.230469 -8.902344 L 33.230469 0 L 24.328125 0 L 24.328125 -8.003906 L 33.230469 -8.003906 L 33.230469 0.898438 L 6.628906 0.898438 L 6.628906 -28.90625 L 29.972656 -28.90625 L 29.972656 -20.003906 L 21.074219 -20.003906 L 21.074219 -27.804688 L 29.972656 -27.804688 L 29.972656 -18.902344 L 6.628906 -18.902344 L 6.628906 -47.960938 L 32.074219 -47.960938 L 32.074219 -39.0625 L 23.265625 -40.339844 Z M 24.421875 -48.273438 "/></g></g></g><g fill="#1e5175" fill-opacity="1"><g transform="translate(185.319795, 86.54345)"><g><path d="M 20.507812 2.089844 L 18.066406 -8.015625 L 26.71875 -10.105469 L 26.71875 -1.203125 L 13.019531 -1.203125 L 13.019531 -10.105469 L 21.6875 -8.070312 L 17.699219 8.902344 L -12.863281 8.902344 L 6.679688 -55.894531 L 33.398438 -55.894531 L 52.941406 8.902344 L 22.152344 8.902344 Z M 37.8125 -2.089844 L 29.160156 0 L 29.160156 -8.902344 L 40.960938 -8.902344 L 40.960938 0 L 32.4375 2.570312 L 18.265625 -44.425781 L 26.785156 -46.996094 L 26.785156 -38.09375 L 13.292969 -38.09375 L 13.292969 -46.996094 L 21.8125 -44.425781 L 7.640625 2.570312 L -0.882812 0 L -0.882812 -8.902344 L 10.648438 -8.902344 L 10.648438 0 L 1.980469 -2.035156 L 5.96875 -19.003906 L 33.726562 -19.003906 Z M 14.917969 -27.074219 L 24.820312 -27.074219 L 24.820312 -18.175781 L 16.160156 -16.109375 L 11.210938 -36.859375 L 19.871094 -38.925781 L 28.527344 -36.859375 L 23.578125 -16.109375 L 14.917969 -18.175781 Z M 3.644531 -9.273438 L 11.210938 -40.992188 L 28.527344 -40.992188 L 36.09375 -9.273438 Z M 3.644531 -9.273438 "/></g></g></g><g fill="#1e5175" fill-opacity="1"><g transform="translate(228.244736, 86.54345)"><g><path d="M 19.871094 -9.070312 L 15.53125 -9.070312 L 15.53125 -17.972656 L 24.429688 -17.972656 L 24.429688 8.902344 L -4.492188 8.902344 L -4.492188 -55.894531 L 19.800781 -55.894531 C 28.152344 -55.894531 34.722656 -54.152344 39.515625 -50.667969 C 42.40625 -48.566406 44.578125 -45.894531 46.035156 -42.660156 C 47.363281 -39.703125 48.03125 -36.378906 48.03125 -32.6875 C 48.03125 -27.746094 46.75 -23.492188 44.183594 -19.929688 C 41.808594 -16.621094 38.332031 -13.941406 33.757812 -11.886719 L 30.109375 -20.003906 L 37.753906 -24.566406 L 57.71875 8.902344 L 24.171875 8.902344 L 12.023438 -13.765625 L 19.871094 -17.972656 Z M 25.199219 -26.871094 L 37.34375 -4.203125 L 29.5 0 L 29.5 -8.902344 L 42.042969 -8.902344 L 42.042969 0 L 34.402344 4.5625 L 17.34375 -24.027344 L 26.460938 -28.125 C 28.125 -28.871094 29.214844 -29.605469 29.730469 -30.320312 C 30.0625 -30.78125 30.226562 -31.570312 30.226562 -32.6875 C 30.226562 -33.832031 30.085938 -34.722656 29.796875 -35.359375 C 29.636719 -35.71875 29.386719 -36.023438 29.042969 -36.269531 C 28.375 -36.757812 27.40625 -37.15625 26.128906 -37.464844 C 24.410156 -37.882812 22.300781 -38.09375 19.800781 -38.09375 L 4.40625 -38.09375 L 4.40625 -46.996094 L 13.308594 -46.996094 L 13.308594 0 L 4.40625 0 L 4.40625 -8.902344 L 15.53125 -8.902344 L 15.53125 0 L 6.628906 0 L 6.628906 -26.871094 Z M 15.53125 -34.535156 L 20.207031 -34.535156 C 20.574219 -34.535156 20.800781 -34.546875 20.890625 -34.578125 C 20.542969 -34.472656 20.183594 -34.25 19.816406 -33.914062 C 19.320312 -33.464844 18.980469 -32.972656 18.796875 -32.441406 C 18.765625 -32.359375 18.75 -32.300781 18.746094 -32.273438 C 18.757812 -32.371094 18.765625 -32.511719 18.765625 -32.6875 C 18.765625 -32.734375 18.765625 -32.773438 18.761719 -32.804688 C 18.761719 -32.800781 18.765625 -32.789062 18.769531 -32.769531 C 18.792969 -32.628906 18.839844 -32.464844 18.914062 -32.285156 C 19.179688 -31.632812 19.605469 -31.078125 20.195312 -30.617188 C 20.402344 -30.457031 20.605469 -30.328125 20.804688 -30.238281 C 20.855469 -30.214844 20.902344 -30.195312 20.941406 -30.179688 C 20.636719 -30.257812 20.167969 -30.296875 19.53125 -30.296875 L 15.53125 -30.296875 L 15.53125 -39.195312 L 24.429688 -39.195312 L 24.429688 -25.632812 L 15.53125 -25.632812 Z M 6.628906 -16.734375 L 6.628906 -48.097656 L 19.53125 -48.097656 C 24.328125 -48.097656 28.199219 -46.949219 31.140625 -44.65625 C 33.0625 -43.15625 34.492188 -41.257812 35.421875 -38.953125 C 36.1875 -37.058594 36.570312 -34.96875 36.570312 -32.6875 C 36.570312 -30.460938 36.25 -28.429688 35.609375 -26.589844 C 34.800781 -24.273438 33.527344 -22.324219 31.789062 -20.742188 C 28.851562 -18.070312 24.988281 -16.734375 20.207031 -16.734375 Z M 6.628906 -16.734375 "/></g></g></g><g fill="#1e5175" fill-opacity="1"><g transform="translate(273.000586, 86.54345)"><g><path d="M 40.621094 8.902344 L 20.265625 8.902344 L 4.542969 -33.308594 L 12.882812 -36.417969 L 21.714844 -37.535156 C 22.179688 -33.859375 22.542969 -30.601562 22.800781 -27.761719 C 23.074219 -24.757812 23.210938 -21.246094 23.210938 -17.226562 L 23.210938 8.902344 L -4.492188 8.902344 L -4.492188 -55.894531 L 24.375 -55.894531 L 40.460938 -13.679688 L 32.144531 -10.511719 L 23.355469 -9.101562 C 22.285156 -15.761719 21.75 -22.0625 21.75 -28.007812 L 21.75 -55.894531 L 49.523438 -55.894531 L 49.523438 8.902344 Z M 40.621094 -8.902344 L 40.621094 0 L 31.71875 0 L 31.71875 -46.996094 L 40.621094 -46.996094 L 40.621094 -38.09375 L 30.652344 -38.09375 L 30.652344 -46.996094 L 39.554688 -46.996094 L 39.554688 -28.007812 C 39.554688 -23.011719 40.011719 -17.648438 40.933594 -11.921875 L 23.824219 -7.339844 L 9.925781 -43.824219 L 18.242188 -46.996094 L 18.242188 -38.09375 L 4.40625 -38.09375 L 4.40625 -46.996094 L 13.308594 -46.996094 L 13.308594 0 L 4.40625 0 L 4.40625 -8.902344 L 14.308594 -8.902344 L 14.308594 0 L 5.40625 0 L 5.40625 -17.226562 C 5.40625 -20.707031 5.296875 -23.683594 5.070312 -26.148438 C 4.832031 -28.78125 4.492188 -31.832031 4.054688 -35.296875 L 21.226562 -39.523438 L 34.789062 -3.105469 L 26.449219 0 L 26.449219 -8.902344 Z M 40.621094 -8.902344 "/></g></g></g><g fill="#c1ff72" fill-opacity="1"><g transform="translate(8.186626, 86.54345)"><g/></g></g><g fill="#c1ff72" fill-opacity="1"><g transform="translate(27.174142, 86.54345)"><g/></g></g><g fill="#c1ff72" fill-opacity="1"><g transform="translate(46.161658, 86.54345)"><g/></g></g><g fill="#c1ff72" fill-opacity="1"><g transform="translate(65.156703, 86.54345)"><g><path d="M 20.203125 -49.5 C 18.210938 -49.5 16.851562 -49.191406 16.125 -48.578125 C 15.40625 -47.972656 15.046875 -46.925781 15.046875 -45.4375 L 15.046875 -32.828125 C 15.046875 -29.972656 14.476562 -27.890625 13.34375 -26.578125 C 12.21875 -25.265625 10.4375 -24.296875 8 -23.671875 C 10.351562 -23.171875 12.113281 -22.253906 13.28125 -20.921875 C 14.457031 -19.585938 15.046875 -17.492188 15.046875 -14.640625 L 15.046875 -2.03125 C 15.046875 -0.539062 15.421875 0.503906 16.171875 1.109375 C 16.921875 1.722656 18.265625 2.03125 20.203125 2.03125 L 20.203125 9.5 C 16.222656 9.5 13.125 9.078125 10.90625 8.234375 C 8.695312 7.398438 7.160156 6.179688 6.296875 4.578125 C 5.441406 2.972656 5.015625 0.882812 5.015625 -1.6875 L 5.015625 -13.828125 C 5.015625 -15.867188 4.707031 -17.296875 4.09375 -18.109375 C 3.488281 -18.921875 2.328125 -19.328125 0.609375 -19.328125 L 0.609375 -28.078125 C 2.328125 -28.078125 3.488281 -28.492188 4.09375 -29.328125 C 4.707031 -30.160156 5.015625 -31.597656 5.015625 -33.640625 L 5.015625 -45.765625 C 5.015625 -48.390625 5.441406 -50.503906 6.296875 -52.109375 C 7.160156 -53.710938 8.695312 -54.921875 10.90625 -55.734375 C 13.125 -56.554688 16.222656 -56.96875 20.203125 -56.96875 Z M 20.203125 -49.5 "/></g></g></g><g fill="#c1ff72" fill-opacity="1"><g transform="translate(90.043812, 86.54345)"><g/></g></g><g fill="#c1ff72" fill-opacity="1"><g transform="translate(109.031328, 86.54345)"><g><path d="M 15.53125 -47 L 15.53125 -8.8125 L 33.84375 -8.8125 L 32.6875 0 L 4.40625 0 L 4.40625 -47 Z M 15.53125 -47 "/></g></g></g><g fill="#c1ff72" fill-opacity="1"><g transform="translate(146.734783, 86.54345)"><g><path d="M 33.234375 -47 L 32.078125 -39.0625 L 15.53125 -39.0625 L 15.53125 -27.796875 L 29.96875 -27.796875 L 29.96875 -20 L 15.53125 -20 L 15.53125 -8 L 33.234375 -8 L 33.234375 0 L 4.40625 0 L 4.40625 -47 Z M 33.234375 -47 "/></g></g></g><g fill="#c1ff72" fill-opacity="1"><g transform="translate(185.319795, 86.54345)"><g><path d="M 29.15625 0 L 26.71875 -10.109375 L 13.015625 -10.109375 L 10.640625 0 L -0.875 0 L 13.296875 -47 L 26.78125 -47 L 40.953125 0 Z M 14.921875 -18.171875 L 24.8125 -18.171875 L 19.875 -38.921875 Z M 14.921875 -18.171875 "/></g></g></g><g fill="#c1ff72" fill-opacity="1"><g transform="translate(228.244736, 86.54345)"><g><path d="M 19.875 -17.96875 L 15.53125 -17.96875 L 15.53125 0 L 4.40625 0 L 4.40625 -47 L 19.796875 -47 C 26.222656 -47 31.050781 -45.820312 34.28125 -43.46875 C 37.507812 -41.113281 39.125 -37.519531 39.125 -32.6875 C 39.125 -29.65625 38.398438 -27.132812 36.953125 -25.125 C 35.503906 -23.113281 33.222656 -21.40625 30.109375 -20 L 42.046875 0 L 29.5 0 Z M 15.53125 -25.640625 L 20.203125 -25.640625 C 22.691406 -25.640625 24.554688 -26.203125 25.796875 -27.328125 C 27.046875 -28.460938 27.671875 -30.25 27.671875 -32.6875 C 27.671875 -34.945312 27.003906 -36.597656 25.671875 -37.640625 C 24.335938 -38.679688 22.289062 -39.203125 19.53125 -39.203125 L 15.53125 -39.203125 Z M 15.53125 -25.640625 "/></g></g></g><g fill="#c1ff72" fill-opacity="1"><g transform="translate(273.000586, 86.54345)"><g><path d="M 40.625 0 L 26.453125 0 L 12.890625 -36.421875 C 13.335938 -32.847656 13.6875 -29.691406 13.9375 -26.953125 C 14.1875 -24.222656 14.3125 -20.976562 14.3125 -17.21875 L 14.3125 0 L 4.40625 0 L 4.40625 -47 L 18.234375 -47 L 32.140625 -10.515625 C 31.148438 -16.703125 30.65625 -22.53125 30.65625 -28 L 30.65625 -47 L 40.625 -47 Z M 40.625 0 "/></g></g></g><g fill="#1e5175" fill-opacity="1"><g transform="translate(108.097618, 149.551185)"><g><path d="M 19.597656 -55.046875 C 27.582031 -55.046875 34.007812 -53.222656 38.875 -49.574219 C 41.699219 -47.453125 43.828125 -44.808594 45.253906 -41.636719 C 46.585938 -38.675781 47.25 -35.351562 47.25 -31.667969 C 47.25 -27.9375 46.617188 -24.574219 45.351562 -21.578125 C 43.980469 -18.328125 41.917969 -15.601562 39.171875 -13.40625 C 34.332031 -9.542969 28.148438 -7.613281 20.617188 -7.613281 L 15.53125 -7.613281 L 15.53125 -15.664062 L 23.582031 -15.664062 L 23.582031 8.054688 L -3.644531 8.054688 L -3.644531 -55.046875 Z M 19.597656 -38.941406 L 4.40625 -38.941406 L 4.40625 -46.996094 L 12.460938 -46.996094 L 12.460938 0 L 4.40625 0 L 4.40625 -8.054688 L 15.53125 -8.054688 L 15.53125 0 L 7.476562 0 L 7.476562 -23.71875 L 20.617188 -23.71875 C 24.386719 -23.71875 27.21875 -24.476562 29.117188 -25.992188 C 29.738281 -26.488281 30.203125 -27.101562 30.515625 -27.839844 C 30.933594 -28.835938 31.144531 -30.109375 31.144531 -31.667969 C 31.144531 -33.050781 30.949219 -34.167969 30.5625 -35.027344 C 30.273438 -35.675781 29.820312 -36.230469 29.210938 -36.6875 C 27.207031 -38.191406 24.003906 -38.941406 19.597656 -38.941406 Z M 19.667969 -31.71875 C 20.164062 -31.71875 20.519531 -31.753906 20.742188 -31.824219 C 20.617188 -31.785156 20.460938 -31.679688 20.273438 -31.511719 C 19.921875 -31.195312 19.691406 -30.878906 19.585938 -30.570312 C 19.652344 -30.757812 19.683594 -31.125 19.683594 -31.667969 C 19.683594 -31.859375 19.671875 -32.011719 19.652344 -32.128906 C 19.652344 -32.148438 19.648438 -32.160156 19.648438 -32.167969 C 19.652344 -32.144531 19.660156 -32.121094 19.671875 -32.089844 C 19.792969 -31.769531 20.003906 -31.476562 20.300781 -31.207031 C 20.507812 -31.023438 20.667969 -30.914062 20.785156 -30.878906 C 20.5 -30.964844 20.058594 -31.007812 19.460938 -31.007812 L 15.53125 -31.007812 L 15.53125 -39.0625 L 23.582031 -39.0625 L 23.582031 -23.667969 L 15.53125 -23.667969 L 15.53125 -31.71875 Z M 19.667969 -15.613281 L 7.476562 -15.613281 L 7.476562 -47.113281 L 19.460938 -47.113281 C 24.269531 -47.113281 28.125 -45.816406 31.035156 -43.21875 C 32.710938 -41.71875 33.957031 -39.886719 34.765625 -37.71875 C 35.449219 -35.886719 35.789062 -33.871094 35.789062 -31.667969 C 35.789062 -26.433594 34.214844 -22.394531 31.0625 -19.550781 C 28.148438 -16.925781 24.351562 -15.613281 19.667969 -15.613281 Z M 19.667969 -15.613281 "/></g></g></g><g fill="#1e5175" fill-opacity="1"><g transform="translate(145.93604, 149.551185)"><g><path d="M 19.871094 -9.917969 L 15.53125 -9.917969 L 15.53125 -17.972656 L 23.582031 -17.972656 L 23.582031 8.054688 L -3.644531 8.054688 L -3.644531 -55.046875 L 19.800781 -55.046875 C 27.96875 -55.046875 34.371094 -53.359375 39.015625 -49.980469 C 41.785156 -47.96875 43.867188 -45.410156 45.261719 -42.3125 C 46.542969 -39.464844 47.183594 -36.257812 47.183594 -32.6875 C 47.183594 -27.925781 45.953125 -23.839844 43.496094 -20.421875 C 41.207031 -17.238281 37.84375 -14.652344 33.410156 -12.660156 L 30.109375 -20.003906 L 37.027344 -24.132812 L 56.226562 8.054688 L 24.679688 8.054688 L 12.769531 -14.167969 L 19.871094 -17.972656 Z M 24.691406 -26.023438 L 36.597656 -3.804688 L 29.5 0 L 29.5 -8.054688 L 42.042969 -8.054688 L 42.042969 0 L 35.128906 4.125 L 18.558594 -23.644531 L 26.808594 -27.351562 C 28.613281 -28.160156 29.816406 -28.988281 30.421875 -29.828125 C 30.855469 -30.433594 31.074219 -31.386719 31.074219 -32.6875 C 31.074219 -33.953125 30.90625 -34.960938 30.570312 -35.707031 C 30.347656 -36.203125 30.003906 -36.621094 29.542969 -36.957031 C 28.785156 -37.507812 27.714844 -37.953125 26.332031 -38.289062 C 24.542969 -38.722656 22.367188 -38.941406 19.800781 -38.941406 L 4.40625 -38.941406 L 4.40625 -46.996094 L 12.460938 -46.996094 L 12.460938 0 L 4.40625 0 L 4.40625 -8.054688 L 15.53125 -8.054688 L 15.53125 0 L 7.476562 0 L 7.476562 -26.023438 Z M 15.53125 -33.6875 L 20.207031 -33.6875 C 20.65625 -33.6875 20.964844 -33.714844 21.136719 -33.765625 C 20.910156 -33.695312 20.660156 -33.539062 20.386719 -33.289062 C 19.996094 -32.933594 19.734375 -32.558594 19.597656 -32.164062 C 19.585938 -32.132812 19.578125 -32.109375 19.574219 -32.089844 C 19.574219 -32.101562 19.578125 -32.121094 19.582031 -32.148438 C 19.605469 -32.289062 19.613281 -32.46875 19.613281 -32.6875 C 19.613281 -32.796875 19.609375 -32.871094 19.605469 -32.914062 C 19.617188 -32.832031 19.652344 -32.726562 19.699219 -32.601562 C 19.90625 -32.089844 20.246094 -31.652344 20.714844 -31.285156 C 20.871094 -31.164062 21.019531 -31.070312 21.160156 -31.007812 L 21.148438 -31 C 20.777344 -31.097656 20.238281 -31.144531 19.53125 -31.144531 L 15.53125 -31.144531 L 15.53125 -39.195312 L 23.582031 -39.195312 L 23.582031 -25.632812 L 15.53125 -25.632812 Z M 7.476562 -17.582031 L 7.476562 -47.25 L 19.53125 -47.25 C 24.132812 -47.25 27.832031 -46.164062 30.621094 -43.988281 C 32.421875 -42.582031 33.761719 -40.796875 34.636719 -38.636719 C 35.359375 -36.84375 35.722656 -34.859375 35.722656 -32.6875 C 35.722656 -30.558594 35.417969 -28.617188 34.808594 -26.867188 C 34.046875 -24.6875 32.851562 -22.851562 31.21875 -21.371094 C 28.441406 -18.84375 24.769531 -17.582031 20.207031 -17.582031 Z M 7.476562 -17.582031 "/></g></g></g><g fill="#1e5175" fill-opacity="1"><g transform="translate(184.927253, 149.551185)"><g><path d="M 23.394531 -56.203125 C 27.804688 -56.203125 31.800781 -55.460938 35.390625 -53.984375 C 39.171875 -52.425781 42.410156 -50.09375 45.109375 -46.984375 C 50.152344 -41.175781 52.675781 -33.359375 52.675781 -23.53125 C 52.675781 -17.253906 51.585938 -11.730469 49.402344 -6.957031 C 47.03125 -1.769531 43.558594 2.234375 38.984375 5.058594 C 34.5 7.824219 29.304688 9.207031 23.394531 9.207031 C 17.492188 9.207031 12.3125 7.835938 7.855469 5.097656 C 3.304688 2.304688 -0.160156 -1.675781 -2.535156 -6.839844 C -4.722656 -11.59375 -5.816406 -17.15625 -5.816406 -23.53125 C -5.816406 -29.765625 -4.726562 -35.265625 -2.542969 -40.035156 C -0.175781 -45.214844 3.28125 -49.21875 7.820312 -52.039062 C 12.285156 -54.8125 17.476562 -56.203125 23.394531 -56.203125 Z M 23.394531 -40.09375 C 20.542969 -40.09375 18.183594 -39.515625 16.320312 -38.359375 C 14.53125 -37.246094 13.125 -35.574219 12.105469 -33.339844 C 10.894531 -30.695312 10.292969 -27.425781 10.292969 -23.53125 C 10.292969 -19.507812 10.894531 -16.1875 12.097656 -13.574219 C 13.113281 -11.367188 14.507812 -9.71875 16.285156 -8.625 C 18.15625 -7.476562 20.527344 -6.902344 23.394531 -6.902344 C 26.257812 -6.902344 28.632812 -7.484375 30.527344 -8.652344 C 32.328125 -9.761719 33.738281 -11.429688 34.753906 -13.65625 C 35.964844 -16.300781 36.566406 -19.59375 36.566406 -23.53125 C 36.566406 -29.347656 35.359375 -33.644531 32.945312 -36.425781 C 31.914062 -37.613281 30.683594 -38.503906 29.253906 -39.089844 C 27.628906 -39.761719 25.679688 -40.09375 23.394531 -40.09375 Z M 23.394531 -31.957031 C 23.207031 -31.957031 23.066406 -31.945312 22.964844 -31.921875 C 22.980469 -31.925781 23.007812 -31.9375 23.054688 -31.964844 C 23.125 -32.003906 23.179688 -32.042969 23.226562 -32.089844 C 23.214844 -32.078125 23.1875 -32.039062 23.148438 -31.96875 C 22.863281 -31.496094 22.617188 -30.6875 22.40625 -29.542969 C 22.105469 -27.933594 21.957031 -25.929688 21.957031 -23.53125 C 21.957031 -21.140625 22.105469 -19.136719 22.410156 -17.527344 C 22.625 -16.378906 22.878906 -15.5625 23.171875 -15.078125 C 23.222656 -14.988281 23.265625 -14.933594 23.289062 -14.910156 C 23.25 -14.945312 23.199219 -14.984375 23.136719 -15.019531 C 23.085938 -15.046875 23.050781 -15.0625 23.027344 -15.066406 C 23.109375 -15.046875 23.230469 -15.039062 23.394531 -15.039062 C 23.601562 -15.039062 23.761719 -15.050781 23.875 -15.078125 L 23.890625 -15.082031 C 23.867188 -15.074219 23.84375 -15.0625 23.816406 -15.046875 C 23.75 -15.007812 23.691406 -14.96875 23.644531 -14.921875 L 23.640625 -14.917969 C 23.660156 -14.945312 23.683594 -14.980469 23.710938 -15.027344 C 23.992188 -15.496094 24.238281 -16.304688 24.453125 -17.460938 C 24.753906 -19.085938 24.902344 -21.109375 24.902344 -23.53125 C 24.902344 -25.945312 24.753906 -27.960938 24.449219 -29.570312 C 24.238281 -30.699219 23.996094 -31.484375 23.722656 -31.929688 C 23.675781 -32.003906 23.648438 -32.046875 23.632812 -32.058594 C 23.671875 -32.019531 23.722656 -31.984375 23.785156 -31.949219 C 23.8125 -31.9375 23.835938 -31.925781 23.859375 -31.917969 L 23.847656 -31.917969 C 23.738281 -31.945312 23.589844 -31.957031 23.394531 -31.957031 Z M 23.394531 -48.0625 C 26.351562 -48.0625 29.027344 -47.421875 31.414062 -46.136719 C 33.886719 -44.808594 35.898438 -42.882812 37.445312 -40.359375 C 38.757812 -38.226562 39.699219 -35.625 40.277344 -32.546875 C 40.765625 -29.953125 41.011719 -26.949219 41.011719 -23.53125 C 41.011719 -20.125 40.769531 -17.121094 40.292969 -14.53125 C 39.726562 -11.46875 38.804688 -8.871094 37.523438 -6.742188 C 35.988281 -4.179688 33.96875 -2.222656 31.46875 -0.875 C 29.070312 0.421875 26.378906 1.070312 23.394531 1.070312 C 20.429688 1.070312 17.746094 0.40625 15.347656 -0.917969 C 12.902344 -2.269531 10.914062 -4.214844 9.378906 -6.757812 C 8.089844 -8.898438 7.15625 -11.496094 6.582031 -14.546875 C 6.09375 -17.144531 5.847656 -20.136719 5.847656 -23.53125 C 5.847656 -26.921875 6.089844 -29.90625 6.570312 -32.488281 C 7.136719 -35.535156 8.058594 -38.125 9.335938 -40.253906 C 10.867188 -42.808594 12.871094 -44.757812 15.347656 -46.105469 C 17.738281 -47.410156 20.421875 -48.0625 23.394531 -48.0625 Z M 23.394531 -48.0625 "/></g></g></g><g fill="#1e5175" fill-opacity="1"><g transform="translate(228.936513, 149.551185)"><g><path d="M 24.753906 -56.203125 C 28.738281 -56.203125 32.484375 -55.554688 35.992188 -54.265625 C 39.539062 -52.960938 42.78125 -51.019531 45.726562 -48.441406 L 52.042969 -42.902344 L 35.65625 -25.726562 L 29.929688 -30.0625 C 28.835938 -30.886719 27.917969 -31.449219 27.171875 -31.746094 C 26.703125 -31.929688 26.054688 -32.023438 25.226562 -32.023438 C 24.734375 -32.023438 24.355469 -31.957031 24.085938 -31.824219 C 23.832031 -31.703125 23.570312 -31.460938 23.296875 -31.101562 C 22.921875 -30.609375 22.609375 -29.859375 22.359375 -28.855469 C 22 -27.421875 21.820312 -25.648438 21.820312 -23.53125 C 21.820312 -21.019531 21.972656 -18.941406 22.277344 -17.296875 C 22.484375 -16.179688 22.710938 -15.429688 22.953125 -15.042969 C 22.96875 -15.015625 22.984375 -14.992188 23 -14.976562 C 22.996094 -14.980469 22.988281 -14.988281 22.976562 -15 C 22.933594 -15.039062 22.882812 -15.074219 22.828125 -15.101562 C 22.816406 -15.109375 22.808594 -15.113281 22.804688 -15.113281 C 22.824219 -15.105469 22.851562 -15.101562 22.886719 -15.09375 C 23.054688 -15.054688 23.269531 -15.039062 23.53125 -15.039062 C 24.507812 -15.039062 25.34375 -15.226562 26.039062 -15.609375 L 29.90625 -8.542969 L 21.851562 -8.542969 L 21.851562 -19.191406 L 29.90625 -19.191406 L 29.90625 -11.136719 L 16.785156 -11.136719 L 13.476562 -35.113281 L 48.742188 -35.113281 L 48.742188 0.578125 L 45.070312 2.960938 C 41.96875 4.96875 38.570312 6.515625 34.878906 7.59375 C 31.203125 8.667969 27.511719 9.207031 23.804688 9.207031 C 19.222656 9.207031 15.121094 8.5 11.492188 7.089844 C 7.558594 5.5625 4.253906 3.25 1.570312 0.148438 C -3.351562 -5.546875 -5.816406 -13.4375 -5.816406 -23.53125 C -5.816406 -30.019531 -4.519531 -35.710938 -1.925781 -40.597656 C 0.777344 -45.695312 4.523438 -49.589844 9.308594 -52.285156 C 13.945312 -54.894531 19.09375 -56.203125 24.753906 -56.203125 Z M 24.753906 -40.09375 C 21.910156 -40.09375 19.394531 -39.480469 17.207031 -38.246094 C 15.167969 -37.097656 13.53125 -35.367188 12.300781 -33.050781 C 10.960938 -30.523438 10.292969 -27.347656 10.292969 -23.53125 C 10.292969 -17.4375 11.445312 -13.058594 13.753906 -10.386719 C 15.765625 -8.0625 19.113281 -6.902344 23.804688 -6.902344 C 25.972656 -6.902344 28.15625 -7.222656 30.359375 -7.867188 C 32.542969 -8.503906 34.527344 -9.402344 36.308594 -10.554688 L 40.6875 -3.796875 L 32.636719 -3.796875 L 32.636719 -27.058594 L 40.6875 -27.058594 L 40.6875 -19.003906 L 22.71875 -19.003906 L 22.71875 -27.058594 L 30.695312 -28.160156 L 31.78125 -20.292969 L 23.804688 -19.191406 L 23.804688 -27.246094 L 37.960938 -27.246094 L 37.960938 -3.773438 L 33.773438 -1.480469 C 30.671875 0.21875 27.257812 1.070312 23.53125 1.070312 C 20.570312 1.070312 17.898438 0.460938 15.519531 -0.75 C 12.972656 -2.046875 10.90625 -3.949219 9.328125 -6.453125 C 7.988281 -8.578125 7.023438 -11.210938 6.441406 -14.355469 C 5.957031 -16.972656 5.710938 -20.03125 5.710938 -23.53125 C 5.710938 -30.902344 7.300781 -36.675781 10.476562 -40.851562 C 12.28125 -43.226562 14.449219 -45.035156 16.976562 -46.277344 C 19.488281 -47.515625 22.238281 -48.132812 25.226562 -48.132812 C 28.105469 -48.132812 30.734375 -47.660156 33.113281 -46.714844 C 35.214844 -45.882812 37.394531 -44.613281 39.648438 -42.90625 L 34.789062 -36.484375 L 28.960938 -42.042969 L 34.589844 -47.941406 L 40.417969 -42.382812 L 35.109375 -36.328125 C 33.667969 -37.589844 32.105469 -38.53125 30.429688 -39.148438 C 28.71875 -39.78125 26.824219 -40.09375 24.753906 -40.09375 Z M 24.753906 -40.09375 "/></g></g></g><g fill="#1e5175" fill-opacity="1"><g transform="translate(269.826444, 149.551185)"><g><path d="M 19.871094 -9.917969 L 15.53125 -9.917969 L 15.53125 -17.972656 L 23.582031 -17.972656 L 23.582031 8.054688 L -3.644531 8.054688 L -3.644531 -55.046875 L 19.800781 -55.046875 C 27.96875 -55.046875 34.371094 -53.359375 39.015625 -49.980469 C 41.785156 -47.96875 43.867188 -45.410156 45.261719 -42.3125 C 46.542969 -39.464844 47.183594 -36.257812 47.183594 -32.6875 C 47.183594 -27.925781 45.953125 -23.839844 43.496094 -20.421875 C 41.207031 -17.238281 37.84375 -14.652344 33.410156 -12.660156 L 30.109375 -20.003906 L 37.027344 -24.132812 L 56.226562 8.054688 L 24.679688 8.054688 L 12.769531 -14.167969 L 19.871094 -17.972656 Z M 24.691406 -26.023438 L 36.597656 -3.804688 L 29.5 0 L 29.5 -8.054688 L 42.042969 -8.054688 L 42.042969 0 L 35.128906 4.125 L 18.558594 -23.644531 L 26.808594 -27.351562 C 28.613281 -28.160156 29.816406 -28.988281 30.421875 -29.828125 C 30.855469 -30.433594 31.074219 -31.386719 31.074219 -32.6875 C 31.074219 -33.953125 30.90625 -34.960938 30.570312 -35.707031 C 30.347656 -36.203125 30.003906 -36.621094 29.542969 -36.957031 C 28.785156 -37.507812 27.714844 -37.953125 26.332031 -38.289062 C 24.542969 -38.722656 22.367188 -38.941406 19.800781 -38.941406 L 4.40625 -38.941406 L 4.40625 -46.996094 L 12.460938 -46.996094 L 12.460938 0 L 4.40625 0 L 4.40625 -8.054688 L 15.53125 -8.054688 L 15.53125 0 L 7.476562 0 L 7.476562 -26.023438 Z M 15.53125 -33.6875 L 20.207031 -33.6875 C 20.65625 -33.6875 20.964844 -33.714844 21.136719 -33.765625 C 20.910156 -33.695312 20.660156 -33.539062 20.386719 -33.289062 C 19.996094 -32.933594 19.734375 -32.558594 19.597656 -32.164062 C 19.585938 -32.132812 19.578125 -32.109375 19.574219 -32.089844 C 19.574219 -32.101562 19.578125 -32.121094 19.582031 -32.148438 C 19.605469 -32.289062 19.613281 -32.46875 19.613281 -32.6875 C 19.613281 -32.796875 19.609375 -32.871094 19.605469 -32.914062 C 19.617188 -32.832031 19.652344 -32.726562 19.699219 -32.601562 C 19.90625 -32.089844 20.246094 -31.652344 20.714844 -31.285156 C 20.871094 -31.164062 21.019531 -31.070312 21.160156 -31.007812 L 21.148438 -31 C 20.777344 -31.097656 20.238281 -31.144531 19.53125 -31.144531 L 15.53125 -31.144531 L 15.53125 -39.195312 L 23.582031 -39.195312 L 23.582031 -25.632812 L 15.53125 -25.632812 Z M 7.476562 -17.582031 L 7.476562 -47.25 L 19.53125 -47.25 C 24.132812 -47.25 27.832031 -46.164062 30.621094 -43.988281 C 32.421875 -42.582031 33.761719 -40.796875 34.636719 -38.636719 C 35.359375 -36.84375 35.722656 -34.859375 35.722656 -32.6875 C 35.722656 -30.558594 35.417969 -28.617188 34.808594 -26.867188 C 34.046875 -24.6875 32.851562 -22.851562 31.21875 -21.371094 C 28.441406 -18.84375 24.769531 -17.582031 20.207031 -17.582031 Z M 7.476562 -17.582031 "/></g></g></g><g fill="#1e5175" fill-opacity="1"><g transform="translate(308.817645, 149.551185)"><g><path d="M 21.332031 1.890625 L 18.890625 -8.214844 L 26.71875 -10.105469 L 26.71875 -2.050781 L 13.019531 -2.050781 L 13.019531 -10.105469 L 20.859375 -8.261719 L 17.027344 8.054688 L -11.722656 8.054688 L 7.308594 -55.046875 L 32.769531 -55.046875 L 51.800781 8.054688 L 22.820312 8.054688 Z M 36.988281 -1.890625 L 29.160156 0 L 29.160156 -8.054688 L 40.960938 -8.054688 L 40.960938 0 L 33.25 2.324219 L 19.074219 -44.667969 L 26.785156 -46.996094 L 26.785156 -38.941406 L 13.292969 -38.941406 L 13.292969 -46.996094 L 21.003906 -44.667969 L 6.828125 2.324219 L -0.882812 0 L -0.882812 -8.054688 L 10.648438 -8.054688 L 10.648438 0 L 2.808594 -1.839844 L 6.640625 -18.15625 L 33.058594 -18.15625 Z M 14.917969 -26.226562 L 24.820312 -26.226562 L 24.820312 -18.175781 L 16.984375 -16.304688 L 12.035156 -37.054688 L 19.871094 -38.925781 L 27.703125 -37.054688 L 22.753906 -16.304688 L 14.917969 -18.175781 Z M 4.71875 -10.121094 L 12.035156 -40.792969 L 27.703125 -40.792969 L 35.019531 -10.121094 Z M 4.71875 -10.121094 "/></g></g></g><g fill="#1e5175" fill-opacity="1"><g transform="translate(345.977971, 149.551185)"><g><path d="M 51.0625 8.054688 L 32.441406 8.054688 L 31.285156 -18.019531 C 31.054688 -22.507812 30.941406 -26.535156 30.941406 -30.109375 C 30.941406 -32.886719 31.011719 -35.527344 31.15625 -38.03125 L 39.195312 -37.570312 L 47.058594 -35.820312 L 38.398438 3.101562 L 15.0625 3.101562 L 5.863281 -35.710938 L 13.699219 -37.570312 L 21.734375 -38.125 C 22.015625 -34.003906 22.160156 -30.113281 22.160156 -26.449219 C 22.160156 -23.699219 22.089844 -20.835938 21.945312 -17.859375 L 20.789062 8.054688 L -6.441406 8.054688 L -1.707031 -55.046875 L 26.269531 -55.046875 L 34.71875 -16.863281 L 26.855469 -15.121094 L 18.96875 -16.75 L 26.871094 -55.046875 L 55.007812 -55.046875 L 59.746094 8.054688 Z M 51.0625 -8.054688 L 51.0625 0 L 43.03125 0.601562 L 39.507812 -46.394531 L 47.539062 -46.996094 L 47.539062 -38.941406 L 33.433594 -38.941406 L 33.433594 -46.996094 L 41.320312 -45.367188 L 34.742188 -13.496094 L 18.992188 -13.382812 L 11.9375 -45.253906 L 19.800781 -46.996094 L 19.800781 -38.941406 L 5.765625 -38.941406 L 5.765625 -46.996094 L 13.796875 -46.394531 L 10.269531 0.601562 L 2.238281 0 L 2.238281 -8.054688 L 13.089844 -8.054688 L 13.089844 0 L 5.042969 -0.359375 L 5.859375 -18.625 C 5.988281 -21.34375 6.050781 -23.953125 6.050781 -26.449219 C 6.050781 -29.742188 5.921875 -33.265625 5.664062 -37.015625 L 21.535156 -39.425781 L 29.265625 -6.808594 L 21.429688 -4.949219 L 21.429688 -13.003906 L 31.941406 -13.003906 L 31.941406 -4.949219 L 24.078125 -6.699219 L 31.335938 -39.316406 L 47.238281 -37.105469 C 47.109375 -34.910156 47.046875 -32.578125 47.046875 -30.109375 C 47.046875 -26.8125 47.15625 -23.019531 47.378906 -18.734375 L 48.191406 -0.355469 L 40.144531 0 L 40.144531 -8.054688 Z M 51.0625 -8.054688 "/></g></g></g><g fill="#1e5175" fill-opacity="1"><g transform="translate(396.429314, 149.551185)"><g><path d="M 51.0625 8.054688 L 32.441406 8.054688 L 31.285156 -18.019531 C 31.054688 -22.507812 30.941406 -26.535156 30.941406 -30.109375 C 30.941406 -32.886719 31.011719 -35.527344 31.15625 -38.03125 L 39.195312 -37.570312 L 47.058594 -35.820312 L 38.398438 3.101562 L 15.0625 3.101562 L 5.863281 -35.710938 L 13.699219 -37.570312 L 21.734375 -38.125 C 22.015625 -34.003906 22.160156 -30.113281 22.160156 -26.449219 C 22.160156 -23.699219 22.089844 -20.835938 21.945312 -17.859375 L 20.789062 8.054688 L -6.441406 8.054688 L -1.707031 -55.046875 L 26.269531 -55.046875 L 34.71875 -16.863281 L 26.855469 -15.121094 L 18.96875 -16.75 L 26.871094 -55.046875 L 55.007812 -55.046875 L 59.746094 8.054688 Z M 51.0625 -8.054688 L 51.0625 0 L 43.03125 0.601562 L 39.507812 -46.394531 L 47.539062 -46.996094 L 47.539062 -38.941406 L 33.433594 -38.941406 L 33.433594 -46.996094 L 41.320312 -45.367188 L 34.742188 -13.496094 L 18.992188 -13.382812 L 11.9375 -45.253906 L 19.800781 -46.996094 L 19.800781 -38.941406 L 5.765625 -38.941406 L 5.765625 -46.996094 L 13.796875 -46.394531 L 10.269531 0.601562 L 2.238281 0 L 2.238281 -8.054688 L 13.089844 -8.054688 L 13.089844 0 L 5.042969 -0.359375 L 5.859375 -18.625 C 5.988281 -21.34375 6.050781 -23.953125 6.050781 -26.449219 C 6.050781 -29.742188 5.921875 -33.265625 5.664062 -37.015625 L 21.535156 -39.425781 L 29.265625 -6.808594 L 21.429688 -4.949219 L 21.429688 -13.003906 L 31.941406 -13.003906 L 31.941406 -4.949219 L 24.078125 -6.699219 L 31.335938 -39.316406 L 47.238281 -37.105469 C 47.109375 -34.910156 47.046875 -32.578125 47.046875 -30.109375 C 47.046875 -26.8125 47.15625 -23.019531 47.378906 -18.734375 L 48.191406 -0.355469 L 40.144531 0 L 40.144531 -8.054688 Z M 51.0625 -8.054688 "/></g></g></g><g fill="#1e5175" fill-opacity="1"><g transform="translate(446.880657, 149.551185)"><g><path d="M -3.644531 -55.046875 L 23.582031 -55.046875 L 23.582031 8.054688 L -3.644531 8.054688 Z M -3.644531 -55.046875 "/></g></g></g><g fill="#1e5175" fill-opacity="1"><g transform="translate(463.900996, 149.551185)"><g><path d="M 40.621094 8.054688 L 20.851562 8.054688 L 5.335938 -33.605469 L 12.882812 -36.417969 L 20.875 -37.425781 C 21.339844 -33.761719 21.699219 -30.515625 21.957031 -27.683594 C 22.226562 -24.707031 22.363281 -21.222656 22.363281 -17.226562 L 22.363281 8.054688 L -3.644531 8.054688 L -3.644531 -55.046875 L 23.792969 -55.046875 L 39.667969 -13.378906 L 32.144531 -10.511719 L 24.191406 -9.234375 C 23.128906 -15.851562 22.597656 -22.109375 22.597656 -28.007812 L 22.597656 -55.046875 L 48.675781 -55.046875 L 48.675781 8.054688 Z M 40.621094 -8.054688 L 40.621094 0 L 32.566406 0 L 32.566406 -46.996094 L 40.621094 -46.996094 L 40.621094 -38.941406 L 30.652344 -38.941406 L 30.652344 -46.996094 L 38.707031 -46.996094 L 38.707031 -28.007812 C 38.707031 -22.964844 39.167969 -17.558594 40.09375 -11.789062 L 24.617188 -7.644531 L 10.714844 -44.128906 L 18.242188 -46.996094 L 18.242188 -38.941406 L 4.40625 -38.941406 L 4.40625 -46.996094 L 12.460938 -46.996094 L 12.460938 0 L 4.40625 0 L 4.40625 -8.054688 L 14.308594 -8.054688 L 14.308594 0 L 6.253906 0 L 6.253906 -17.226562 C 6.253906 -20.734375 6.140625 -23.734375 5.914062 -26.226562 C 5.675781 -28.867188 5.335938 -31.925781 4.894531 -35.40625 L 20.433594 -39.226562 L 33.996094 -2.8125 L 26.449219 0 L 26.449219 -8.054688 Z M 40.621094 -8.054688 "/></g></g></g><g fill="#1e5175" fill-opacity="1"><g transform="translate(506.011537, 149.551185)"><g><path d="M 24.753906 -56.203125 C 28.738281 -56.203125 32.484375 -55.554688 35.992188 -54.265625 C 39.539062 -52.960938 42.78125 -51.019531 45.726562 -48.441406 L 52.042969 -42.902344 L 35.65625 -25.726562 L 29.929688 -30.0625 C 28.835938 -30.886719 27.917969 -31.449219 27.171875 -31.746094 C 26.703125 -31.929688 26.054688 -32.023438 25.226562 -32.023438 C 24.734375 -32.023438 24.355469 -31.957031 24.085938 -31.824219 C 23.832031 -31.703125 23.570312 -31.460938 23.296875 -31.101562 C 22.921875 -30.609375 22.609375 -29.859375 22.359375 -28.855469 C 22 -27.421875 21.820312 -25.648438 21.820312 -23.53125 C 21.820312 -21.019531 21.972656 -18.941406 22.277344 -17.296875 C 22.484375 -16.179688 22.710938 -15.429688 22.953125 -15.042969 C 22.96875 -15.015625 22.984375 -14.992188 23 -14.976562 C 22.996094 -14.980469 22.988281 -14.988281 22.976562 -15 C 22.933594 -15.039062 22.882812 -15.074219 22.828125 -15.101562 C 22.816406 -15.109375 22.808594 -15.113281 22.804688 -15.113281 C 22.824219 -15.105469 22.851562 -15.101562 22.886719 -15.09375 C 23.054688 -15.054688 23.269531 -15.039062 23.53125 -15.039062 C 24.507812 -15.039062 25.34375 -15.226562 26.039062 -15.609375 L 29.90625 -8.542969 L 21.851562 -8.542969 L 21.851562 -19.191406 L 29.90625 -19.191406 L 29.90625 -11.136719 L 16.785156 -11.136719 L 13.476562 -35.113281 L 48.742188 -35.113281 L 48.742188 0.578125 L 45.070312 2.960938 C 41.96875 4.96875 38.570312 6.515625 34.878906 7.59375 C 31.203125 8.667969 27.511719 9.207031 23.804688 9.207031 C 19.222656 9.207031 15.121094 8.5 11.492188 7.089844 C 7.558594 5.5625 4.253906 3.25 1.570312 0.148438 C -3.351562 -5.546875 -5.816406 -13.4375 -5.816406 -23.53125 C -5.816406 -30.019531 -4.519531 -35.710938 -1.925781 -40.597656 C 0.777344 -45.695312 4.523438 -49.589844 9.308594 -52.285156 C 13.945312 -54.894531 19.09375 -56.203125 24.753906 -56.203125 Z M 24.753906 -40.09375 C 21.910156 -40.09375 19.394531 -39.480469 17.207031 -38.246094 C 15.167969 -37.097656 13.53125 -35.367188 12.300781 -33.050781 C 10.960938 -30.523438 10.292969 -27.347656 10.292969 -23.53125 C 10.292969 -17.4375 11.445312 -13.058594 13.753906 -10.386719 C 15.765625 -8.0625 19.113281 -6.902344 23.804688 -6.902344 C 25.972656 -6.902344 28.15625 -7.222656 30.359375 -7.867188 C 32.542969 -8.503906 34.527344 -9.402344 36.308594 -10.554688 L 40.6875 -3.796875 L 32.636719 -3.796875 L 32.636719 -27.058594 L 40.6875 -27.058594 L 40.6875 -19.003906 L 22.71875 -19.003906 L 22.71875 -27.058594 L 30.695312 -28.160156 L 31.78125 -20.292969 L 23.804688 -19.191406 L 23.804688 -27.246094 L 37.960938 -27.246094 L 37.960938 -3.773438 L 33.773438 -1.480469 C 30.671875 0.21875 27.257812 1.070312 23.53125 1.070312 C 20.570312 1.070312 17.898438 0.460938 15.519531 -0.75 C 12.972656 -2.046875 10.90625 -3.949219 9.328125 -6.453125 C 7.988281 -8.578125 7.023438 -11.210938 6.441406 -14.355469 C 5.957031 -16.972656 5.710938 -20.03125 5.710938 -23.53125 C 5.710938 -30.902344 7.300781 -36.675781 10.476562 -40.851562 C 12.28125 -43.226562 14.449219 -45.035156 16.976562 -46.277344 C 19.488281 -47.515625 22.238281 -48.132812 25.226562 -48.132812 C 28.105469 -48.132812 30.734375 -47.660156 33.113281 -46.714844 C 35.214844 -45.882812 37.394531 -44.613281 39.648438 -42.90625 L 34.789062 -36.484375 L 28.960938 -42.042969 L 34.589844 -47.941406 L 40.417969 -42.382812 L 35.109375 -36.328125 C 33.667969 -37.589844 32.105469 -38.53125 30.429688 -39.148438 C 28.71875 -39.78125 26.824219 -40.09375 24.753906 -40.09375 Z M 24.753906 -40.09375 "/></g></g></g><g fill="#1e5175" fill-opacity="1"><g transform="translate(546.907899, 149.551185)"><g/></g></g><g fill="#1e5175" fill-opacity="1"><g transform="translate(560.130789, 149.551185)"><g/></g></g><g fill="#1e5175" fill-opacity="1"><g transform="translate(573.356894, 149.551185)"><g><path d="M 1.761719 -65.015625 C 6.707031 -65.015625 10.726562 -64.441406 13.820312 -63.292969 C 17.921875 -61.773438 20.878906 -59.3125 22.699219 -55.914062 C 24.191406 -53.125 24.9375 -49.742188 24.9375 -45.773438 L 24.9375 -33.636719 C 24.9375 -33.203125 24.957031 -32.914062 24.988281 -32.765625 C 24.894531 -33.195312 24.648438 -33.671875 24.257812 -34.191406 C 23.617188 -35.039062 22.835938 -35.628906 21.921875 -35.960938 C 21.699219 -36.039062 21.5 -36.09375 21.316406 -36.121094 C 21.28125 -36.125 21.253906 -36.128906 21.234375 -36.128906 C 21.246094 -36.128906 21.265625 -36.128906 21.292969 -36.128906 L 29.347656 -36.128906 L 29.347656 -11.273438 L 21.292969 -11.273438 L 21.285156 -11.28125 C 21.453125 -11.304688 21.644531 -11.351562 21.855469 -11.425781 C 22.761719 -11.746094 23.542969 -12.328125 24.191406 -13.160156 C 24.617188 -13.707031 24.882812 -14.214844 24.984375 -14.679688 C 24.953125 -14.542969 24.9375 -14.261719 24.9375 -13.835938 L 24.9375 -1.695312 C 24.9375 2.226562 24.191406 5.585938 22.699219 8.378906 C 20.890625 11.75 17.957031 14.214844 13.890625 15.765625 C 10.773438 16.953125 6.730469 17.546875 1.761719 17.546875 L -6.289062 17.546875 L -6.289062 -6.019531 L 1.761719 -6.019531 C 2.128906 -6.019531 2.347656 -6.027344 2.425781 -6.046875 C 1.824219 -5.90625 1.203125 -5.570312 0.570312 -5.035156 C -0.199219 -4.386719 -0.734375 -3.621094 -1.039062 -2.746094 C -1.148438 -2.425781 -1.203125 -2.1875 -1.203125 -2.035156 L -1.203125 -14.648438 C -1.203125 -19.453125 0.0390625 -23.292969 2.527344 -26.160156 C 4.890625 -28.890625 8.160156 -30.6875 12.332031 -31.550781 L 13.96875 -23.667969 L 11.949219 -15.871094 C 7.882812 -16.925781 4.738281 -18.742188 2.511719 -21.324219 C 0.078125 -24.148438 -1.136719 -27.980469 -1.136719 -32.820312 L -1.136719 -45.433594 C -1.136719 -45.285156 -1.082031 -45.046875 -0.96875 -44.722656 C -0.667969 -43.847656 -0.132812 -43.082031 0.636719 -42.433594 C 1.28125 -41.890625 1.902344 -41.554688 2.503906 -41.417969 C 2.410156 -41.441406 2.160156 -41.449219 1.761719 -41.449219 L -6.289062 -41.449219 L -6.289062 -65.015625 Z M 1.761719 -48.910156 L 1.761719 -56.964844 L 9.816406 -56.964844 L 9.816406 -49.503906 L 1.761719 -49.503906 L 1.761719 -57.558594 C 5.714844 -57.558594 8.800781 -56.621094 11.027344 -54.742188 C 12.519531 -53.484375 13.597656 -51.890625 14.261719 -49.964844 C 14.734375 -48.589844 14.96875 -47.078125 14.96875 -45.433594 L 14.96875 -32.820312 C 14.96875 -32.113281 15.019531 -31.585938 15.113281 -31.238281 C 15.117188 -31.21875 15.121094 -31.207031 15.121094 -31.207031 C 15.109375 -31.234375 15.09375 -31.269531 15.074219 -31.3125 C 14.988281 -31.488281 14.867188 -31.664062 14.710938 -31.839844 C 14.652344 -31.910156 14.597656 -31.964844 14.546875 -32.003906 C 14.5625 -31.996094 14.59375 -31.972656 14.648438 -31.945312 C 14.960938 -31.773438 15.410156 -31.613281 15.992188 -31.464844 L 15.605469 -15.78125 C 15.132812 -15.683594 14.777344 -15.574219 14.542969 -15.449219 C 14.523438 -15.441406 14.511719 -15.433594 14.5 -15.425781 C 14.507812 -15.429688 14.515625 -15.4375 14.527344 -15.445312 C 14.582031 -15.488281 14.640625 -15.542969 14.699219 -15.613281 C 14.828125 -15.761719 14.929688 -15.910156 15.007812 -16.058594 C 15.023438 -16.09375 15.039062 -16.125 15.050781 -16.148438 C 15.046875 -16.148438 15.046875 -16.136719 15.039062 -16.121094 C 14.949219 -15.796875 14.902344 -15.304688 14.902344 -14.648438 L 14.902344 -2.035156 C 14.902344 -0.390625 14.667969 1.117188 14.191406 2.492188 C 13.53125 4.417969 12.453125 6.011719 10.957031 7.273438 C 8.734375 9.148438 5.667969 10.089844 1.761719 10.089844 L 1.761719 2.035156 L 9.816406 2.035156 L 9.816406 9.492188 L 1.761719 9.492188 L 1.761719 1.441406 C 4.753906 1.441406 6.882812 1.199219 8.148438 0.714844 C 8.460938 0.597656 8.671875 0.492188 8.777344 0.40625 C 8.679688 0.484375 8.585938 0.609375 8.496094 0.777344 C 8.558594 0.664062 8.617188 0.464844 8.675781 0.183594 C 8.78125 -0.324219 8.832031 -0.953125 8.832031 -1.695312 L 8.832031 -13.835938 C 8.832031 -17.710938 9.714844 -20.78125 11.476562 -23.050781 C 12.761719 -24.699219 14.433594 -25.890625 16.492188 -26.617188 C 17.9375 -27.125 19.539062 -27.378906 21.292969 -27.378906 L 21.292969 -19.328125 L 13.238281 -19.328125 L 13.238281 -28.074219 L 21.292969 -28.074219 L 21.292969 -20.023438 C 19.511719 -20.023438 17.890625 -20.285156 16.429688 -20.816406 C 14.359375 -21.566406 12.6875 -22.785156 11.414062 -24.46875 C 9.691406 -26.742188 8.832031 -29.800781 8.832031 -33.636719 L 8.832031 -45.773438 C 8.832031 -46.546875 8.777344 -47.195312 8.671875 -47.722656 C 8.613281 -48.007812 8.554688 -48.207031 8.496094 -48.316406 C 8.59375 -48.136719 8.695312 -48 8.804688 -47.914062 C 8.710938 -47.988281 8.515625 -48.082031 8.21875 -48.191406 C 6.929688 -48.671875 4.777344 -48.910156 1.761719 -48.910156 Z M 1.761719 -48.910156 "/></g></g></g><g fill="#91c4f6" fill-opacity="1"><g transform="translate(108.097618, 149.551185)"><g><path d="M 19.59375 -47 C 25.789062 -47 30.609375 -45.707031 34.046875 -43.125 C 37.484375 -40.550781 39.203125 -36.734375 39.203125 -31.671875 C 39.203125 -26.378906 37.515625 -22.390625 34.140625 -19.703125 C 30.773438 -17.015625 26.265625 -15.671875 20.609375 -15.671875 L 15.53125 -15.671875 L 15.53125 0 L 4.40625 0 L 4.40625 -47 Z M 19.671875 -23.671875 C 22.285156 -23.671875 24.28125 -24.289062 25.65625 -25.53125 C 27.039062 -26.769531 27.734375 -28.816406 27.734375 -31.671875 C 27.734375 -36.597656 24.976562 -39.0625 19.46875 -39.0625 L 15.53125 -39.0625 L 15.53125 -23.671875 Z M 19.671875 -23.671875 "/></g></g></g><g fill="#91c4f6" fill-opacity="1"><g transform="translate(145.93604, 149.551185)"><g><path d="M 19.875 -17.96875 L 15.53125 -17.96875 L 15.53125 0 L 4.40625 0 L 4.40625 -47 L 19.796875 -47 C 26.222656 -47 31.050781 -45.820312 34.28125 -43.46875 C 37.507812 -41.113281 39.125 -37.519531 39.125 -32.6875 C 39.125 -29.65625 38.398438 -27.132812 36.953125 -25.125 C 35.503906 -23.113281 33.222656 -21.40625 30.109375 -20 L 42.046875 0 L 29.5 0 Z M 15.53125 -25.640625 L 20.203125 -25.640625 C 22.691406 -25.640625 24.554688 -26.203125 25.796875 -27.328125 C 27.046875 -28.460938 27.671875 -30.25 27.671875 -32.6875 C 27.671875 -34.945312 27.003906 -36.597656 25.671875 -37.640625 C 24.335938 -38.679688 22.289062 -39.203125 19.53125 -39.203125 L 15.53125 -39.203125 Z M 15.53125 -25.640625 "/></g></g></g><g fill="#91c4f6" fill-opacity="1"><g transform="translate(184.927253, 149.551185)"><g><path d="M 23.390625 -48.140625 C 30.085938 -48.140625 35.300781 -45.992188 39.03125 -41.703125 C 42.757812 -37.410156 44.625 -31.351562 44.625 -23.53125 C 44.625 -18.425781 43.773438 -14.019531 42.078125 -10.3125 C 40.378906 -6.601562 37.9375 -3.765625 34.75 -1.796875 C 31.5625 0.171875 27.773438 1.15625 23.390625 1.15625 C 19.003906 1.15625 15.226562 0.1875 12.0625 -1.75 C 8.90625 -3.695312 6.476562 -6.515625 4.78125 -10.203125 C 3.082031 -13.890625 2.234375 -18.332031 2.234375 -23.53125 C 2.234375 -28.59375 3.082031 -32.976562 4.78125 -36.6875 C 6.476562 -40.394531 8.90625 -43.226562 12.0625 -45.1875 C 15.226562 -47.15625 19.003906 -48.140625 23.390625 -48.140625 Z M 23.390625 -40.015625 C 20.179688 -40.015625 17.796875 -38.710938 16.234375 -36.109375 C 14.679688 -33.503906 13.90625 -29.3125 13.90625 -23.53125 C 13.90625 -17.738281 14.691406 -13.53125 16.265625 -10.90625 C 17.847656 -8.289062 20.222656 -6.984375 23.390625 -6.984375 C 26.648438 -6.984375 29.054688 -8.28125 30.609375 -10.875 C 32.171875 -13.476562 32.953125 -17.695312 32.953125 -23.53125 C 32.953125 -29.363281 32.160156 -33.566406 30.578125 -36.140625 C 28.992188 -38.722656 26.597656 -40.015625 23.390625 -40.015625 Z M 23.390625 -40.015625 "/></g></g></g><g fill="#91c4f6" fill-opacity="1"><g transform="translate(228.936513, 149.551185)"><g><path d="M 24.75 -48.140625 C 30.8125 -48.140625 36.035156 -46.21875 40.421875 -42.375 L 34.78125 -36.484375 C 33.113281 -37.742188 31.566406 -38.65625 30.140625 -39.21875 C 28.710938 -39.789062 27.070312 -40.078125 25.21875 -40.078125 C 21.738281 -40.078125 18.957031 -38.707031 16.875 -35.96875 C 14.800781 -33.238281 13.765625 -29.09375 13.765625 -23.53125 C 13.765625 -17.519531 14.554688 -13.257812 16.140625 -10.75 C 17.722656 -8.238281 20.1875 -6.984375 23.53125 -6.984375 C 25.882812 -6.984375 28.007812 -7.503906 29.90625 -8.546875 L 29.90625 -19.1875 L 23.796875 -19.1875 L 22.71875 -27.0625 L 40.6875 -27.0625 L 40.6875 -3.796875 C 38.25 -2.210938 35.554688 -0.988281 32.609375 -0.125 C 29.671875 0.726562 26.734375 1.15625 23.796875 1.15625 C 16.660156 1.15625 11.28125 -0.929688 7.65625 -5.109375 C 4.039062 -9.296875 2.234375 -15.4375 2.234375 -23.53125 C 2.234375 -28.6875 3.21875 -33.113281 5.1875 -36.8125 C 7.15625 -40.519531 9.84375 -43.332031 13.25 -45.25 C 16.664062 -47.175781 20.5 -48.140625 24.75 -48.140625 Z M 24.75 -48.140625 "/></g></g></g><g fill="#91c4f6" fill-opacity="1"><g transform="translate(269.826444, 149.551185)"><g><path d="M 19.875 -17.96875 L 15.53125 -17.96875 L 15.53125 0 L 4.40625 0 L 4.40625 -47 L 19.796875 -47 C 26.222656 -47 31.050781 -45.820312 34.28125 -43.46875 C 37.507812 -41.113281 39.125 -37.519531 39.125 -32.6875 C 39.125 -29.65625 38.398438 -27.132812 36.953125 -25.125 C 35.503906 -23.113281 33.222656 -21.40625 30.109375 -20 L 42.046875 0 L 29.5 0 Z M 15.53125 -25.640625 L 20.203125 -25.640625 C 22.691406 -25.640625 24.554688 -26.203125 25.796875 -27.328125 C 27.046875 -28.460938 27.671875 -30.25 27.671875 -32.6875 C 27.671875 -34.945312 27.003906 -36.597656 25.671875 -37.640625 C 24.335938 -38.679688 22.289062 -39.203125 19.53125 -39.203125 L 15.53125 -39.203125 Z M 15.53125 -25.640625 "/></g></g></g><g fill="#91c4f6" fill-opacity="1"><g transform="translate(308.817645, 149.551185)"><g><path d="M 29.15625 0 L 26.71875 -10.109375 L 13.015625 -10.109375 L 10.640625 0 L -0.875 0 L 13.296875 -47 L 26.78125 -47 L 40.953125 0 Z M 14.921875 -18.171875 L 24.8125 -18.171875 L 19.875 -38.921875 Z M 14.921875 -18.171875 "/></g></g></g><g fill="#91c4f6" fill-opacity="1"><g transform="translate(345.977971, 149.551185)"><g><path d="M 51.0625 0 L 40.140625 0 L 39.328125 -18.375 C 39.097656 -22.757812 38.984375 -26.671875 38.984375 -30.109375 C 38.984375 -32.734375 39.054688 -35.21875 39.203125 -37.5625 L 31.9375 -4.953125 L 21.421875 -4.953125 L 13.703125 -37.5625 C 13.972656 -33.632812 14.109375 -29.929688 14.109375 -26.453125 C 14.109375 -23.828125 14.039062 -21.085938 13.90625 -18.234375 L 13.09375 0 L 2.234375 0 L 5.765625 -47 L 19.796875 -47 L 26.859375 -15.125 L 33.4375 -47 L 47.53125 -47 Z M 51.0625 0 "/></g></g></g><g fill="#91c4f6" fill-opacity="1"><g transform="translate(396.429314, 149.551185)"><g><path d="M 51.0625 0 L 40.140625 0 L 39.328125 -18.375 C 39.097656 -22.757812 38.984375 -26.671875 38.984375 -30.109375 C 38.984375 -32.734375 39.054688 -35.21875 39.203125 -37.5625 L 31.9375 -4.953125 L 21.421875 -4.953125 L 13.703125 -37.5625 C 13.972656 -33.632812 14.109375 -29.929688 14.109375 -26.453125 C 14.109375 -23.828125 14.039062 -21.085938 13.90625 -18.234375 L 13.09375 0 L 2.234375 0 L 5.765625 -47 L 19.796875 -47 L 26.859375 -15.125 L 33.4375 -47 L 47.53125 -47 Z M 51.0625 0 "/></g></g></g><g fill="#91c4f6" fill-opacity="1"><g transform="translate(446.880657, 149.551185)"><g><path d="M 15.53125 -47 L 15.53125 0 L 4.40625 0 L 4.40625 -47 Z M 15.53125 -47 "/></g></g></g><g fill="#91c4f6" fill-opacity="1"><g transform="translate(463.900996, 149.551185)"><g><path d="M 40.625 0 L 26.453125 0 L 12.890625 -36.421875 C 13.335938 -32.847656 13.6875 -29.691406 13.9375 -26.953125 C 14.1875 -24.222656 14.3125 -20.976562 14.3125 -17.21875 L 14.3125 0 L 4.40625 0 L 4.40625 -47 L 18.234375 -47 L 32.140625 -10.515625 C 31.148438 -16.703125 30.65625 -22.53125 30.65625 -28 L 30.65625 -47 L 40.625 -47 Z M 40.625 0 "/></g></g></g><g fill="#91c4f6" fill-opacity="1"><g transform="translate(506.011537, 149.551185)"><g><path d="M 24.75 -48.140625 C 30.8125 -48.140625 36.035156 -46.21875 40.421875 -42.375 L 34.78125 -36.484375 C 33.113281 -37.742188 31.566406 -38.65625 30.140625 -39.21875 C 28.710938 -39.789062 27.070312 -40.078125 25.21875 -40.078125 C 21.738281 -40.078125 18.957031 -38.707031 16.875 -35.96875 C 14.800781 -33.238281 13.765625 -29.09375 13.765625 -23.53125 C 13.765625 -17.519531 14.554688 -13.257812 16.140625 -10.75 C 17.722656 -8.238281 20.1875 -6.984375 23.53125 -6.984375 C 25.882812 -6.984375 28.007812 -7.503906 29.90625 -8.546875 L 29.90625 -19.1875 L 23.796875 -19.1875 L 22.71875 -27.0625 L 40.6875 -27.0625 L 40.6875 -3.796875 C 38.25 -2.210938 35.554688 -0.988281 32.609375 -0.125 C 29.671875 0.726562 26.734375 1.15625 23.796875 1.15625 C 16.660156 1.15625 11.28125 -0.929688 7.65625 -5.109375 C 4.039062 -9.296875 2.234375 -15.4375 2.234375 -23.53125 C 2.234375 -28.6875 3.21875 -33.113281 5.1875 -36.8125 C 7.15625 -40.519531 9.84375 -43.332031 13.25 -45.25 C 16.664062 -47.175781 20.5 -48.140625 24.75 -48.140625 Z M 24.75 -48.140625 "/></g></g></g><g fill="#91c4f6" fill-opacity="1"><g transform="translate(546.907899, 149.551185)"><g/></g></g><g fill="#91c4f6" fill-opacity="1"><g transform="translate(560.130789, 149.551185)"><g/></g></g><g fill="#91c4f6" fill-opacity="1"><g transform="translate(573.356894, 149.551185)"><g><path d="M 1.765625 -56.96875 C 5.742188 -56.96875 8.828125 -56.554688 11.015625 -55.734375 C 13.210938 -54.921875 14.738281 -53.710938 15.59375 -52.109375 C 16.457031 -50.503906 16.890625 -48.390625 16.890625 -45.765625 L 16.890625 -33.640625 C 16.890625 -31.597656 17.203125 -30.160156 17.828125 -29.328125 C 18.460938 -28.492188 19.617188 -28.078125 21.296875 -28.078125 L 21.296875 -19.328125 C 19.617188 -19.328125 18.460938 -18.921875 17.828125 -18.109375 C 17.203125 -17.296875 16.890625 -15.867188 16.890625 -13.828125 L 16.890625 -1.6875 C 16.890625 0.882812 16.457031 2.972656 15.59375 4.578125 C 14.738281 6.179688 13.210938 7.398438 11.015625 8.234375 C 8.828125 9.078125 5.742188 9.5 1.765625 9.5 L 1.765625 2.03125 C 3.703125 2.03125 5.03125 1.722656 5.75 1.109375 C 6.476562 0.503906 6.84375 -0.539062 6.84375 -2.03125 L 6.84375 -14.640625 C 6.84375 -17.453125 7.429688 -19.535156 8.609375 -20.890625 C 9.785156 -22.242188 11.570312 -23.171875 13.96875 -23.671875 C 11.53125 -24.296875 9.742188 -25.265625 8.609375 -26.578125 C 7.484375 -27.890625 6.921875 -29.972656 6.921875 -32.828125 L 6.921875 -45.4375 C 6.921875 -46.925781 6.554688 -47.972656 5.828125 -48.578125 C 5.109375 -49.191406 3.753906 -49.5 1.765625 -49.5 Z M 1.765625 -56.96875 "/></g></g></g></svg>