<svg xmlns="http://www.w3.org/2000/svg" xmlns:xlink="http://www.w3.org/1999/xlink" width="900" zoomAndPan="magnify" viewBox="0 0 675 187.499995" height="250" preserveAspectRatio="xMidYMid meet" version="1.2"><defs/><g id="cfe0dc87be"><g style="fill:#1e5175;fill-opacity:1;"><g transform="translate(215.179468, 81.109188)"><path style="stroke:none" d="M -2.863281 0 L -2.863281 -42.257812 L 26.839844 -42.257812 L 26.839844 -10.199219 L 20.496094 -10.199219 L 20.496094 -16.542969 L 46.609375 -16.542969 L 46.609375 6.34375 L -2.863281 6.34375 Z M 9.824219 0 L 3.480469 0 L 3.480469 -6.34375 L 40.265625 -6.34375 L 40.265625 0 L 33.917969 0 L 33.917969 -10.199219 L 40.265625 -10.199219 L 40.265625 -3.855469 L 14.148438 -3.855469 L 14.148438 -35.914062 L 20.496094 -35.914062 L 20.496094 -29.570312 L 3.480469 -29.570312 L 3.480469 -35.914062 L 9.824219 -35.914062 Z M 9.824219 0 "/></g></g><g style="fill:#1e5175;fill-opacity:1;"><g transform="translate(254.663088, 81.109188)"><path style="stroke:none" d="M -2.863281 0 L -2.863281 -42.257812 L 49.992188 -42.257812 L 49.992188 -19.707031 L 20.496094 -19.707031 L 20.496094 -26.054688 L 26.839844 -26.054688 L 26.839844 -22.136719 L 20.496094 -22.136719 L 20.496094 -28.480469 L 47.914062 -28.480469 L 47.914062 -8.058594 L 20.496094 -8.058594 L 20.496094 -14.402344 L 26.839844 -14.402344 L 26.839844 -9.859375 L 20.496094 -9.859375 L 20.496094 -16.203125 L 50.523438 -16.203125 L 50.523438 6.34375 L -2.863281 6.34375 Z M 9.824219 0 L 3.480469 0 L 3.480469 -6.34375 L 44.179688 -6.34375 L 44.179688 0 L 37.835938 0 L 37.835938 -9.859375 L 44.179688 -9.859375 L 44.179688 -3.515625 L 14.148438 -3.515625 L 14.148438 -20.75 L 41.570312 -20.75 L 41.570312 -14.402344 L 35.226562 -14.402344 L 35.226562 -22.136719 L 41.570312 -22.136719 L 41.570312 -15.792969 L 14.148438 -15.792969 L 14.148438 -32.398438 L 43.648438 -32.398438 L 43.648438 -26.054688 L 37.304688 -26.054688 L 37.304688 -35.914062 L 43.648438 -35.914062 L 43.648438 -29.570312 L 3.480469 -29.570312 L 3.480469 -35.914062 L 9.824219 -35.914062 Z M 9.824219 0 "/></g></g><g style="fill:#1e5175;fill-opacity:1;"><g transform="translate(298.302923, 81.109188)"><path style="stroke:none" d="M -5.539062 -2.503906 L 11.527344 -42.257812 L 44.117188 -42.257812 L 65.445312 6.34375 L 32.910156 6.34375 L 29.46875 -3.8125 L 35.480469 -5.847656 L 35.480469 0.496094 L 20.496094 0.496094 L 20.496094 -5.847656 L 26.503906 -3.8125 L 23.0625 6.34375 L -9.339844 6.34375 Z M 6.121094 2.503906 L 0.289062 0 L 0.289062 -6.34375 L 18.511719 -6.34375 L 18.511719 0 L 12.503906 -2.035156 L 15.945312 -12.191406 L 40.027344 -12.191406 L 43.46875 -2.035156 L 37.460938 0 L 37.460938 -6.34375 L 55.730469 -6.34375 L 55.730469 0 L 49.921875 2.550781 L 34.164062 -33.363281 L 39.972656 -35.914062 L 39.972656 -29.570312 L 15.710938 -29.570312 L 15.710938 -35.914062 L 21.539062 -33.410156 Z M 23.492188 -20.992188 L 32.480469 -20.992188 L 32.480469 -14.644531 L 26.472656 -12.609375 L 22.339844 -24.816406 L 21.941406 -26.347656 L 28.082031 -27.9375 L 28.082031 -21.59375 L 27.890625 -21.59375 L 27.890625 -27.9375 L 34.03125 -26.347656 L 33.636719 -24.816406 L 29.5 -12.609375 L 23.492188 -14.644531 Z M 14.644531 -8.300781 L 21.542969 -28.667969 L 27.550781 -26.632812 L 21.410156 -28.226562 L 22.980469 -34.28125 L 32.992188 -34.28125 L 34.5625 -28.226562 L 28.421875 -26.632812 L 34.429688 -28.667969 L 41.328125 -8.300781 Z M 14.644531 -8.300781 "/></g></g><g style="fill:#1e5175;fill-opacity:1;"><g transform="translate(352.333303, 81.109188)"><path style="stroke:none" d="M -2.863281 0 L -2.863281 -42.257812 L 30.933594 -42.257812 C 36.519531 -42.257812 41.078125 -41.640625 44.609375 -40.402344 C 48.726562 -38.960938 51.796875 -36.824219 53.816406 -33.988281 C 55.84375 -31.148438 56.855469 -27.9375 56.855469 -24.363281 C 56.855469 -22.40625 56.550781 -20.570312 55.9375 -18.851562 C 55.300781 -17.0625 54.351562 -15.441406 53.085938 -13.996094 C 50.722656 -11.296875 47.492188 -9.46875 43.394531 -8.515625 L 41.957031 -14.695312 L 48.300781 -14.695312 L 48.300781 -14.644531 L 41.957031 -14.644531 L 43.625 -20.765625 C 45.695312 -20.203125 47.441406 -19.449219 48.859375 -18.515625 C 50.636719 -17.339844 52.035156 -15.765625 53.054688 -13.785156 C 53.835938 -12.273438 54.460938 -10.378906 54.933594 -8.105469 L 48.722656 -6.816406 L 54.867188 -8.402344 L 55.253906 -6.902344 C 55.496094 -5.867188 55.71875 -5.035156 55.914062 -4.40625 C 56.128906 -3.714844 56.386719 -2.957031 56.679688 -2.132812 L 59.707031 6.34375 L 29.914062 6.34375 L 28.160156 2.835938 C 27.742188 2 27.382812 1.011719 27.078125 -0.128906 C 26.847656 -0.984375 26.59375 -2.121094 26.308594 -3.542969 L 25.957031 -5.148438 L 25.929688 -5.320312 C 25.992188 -4.917969 26.152344 -4.527344 26.402344 -4.148438 C 26.65625 -3.765625 26.960938 -3.460938 27.316406 -3.242188 C 27.507812 -3.121094 27.683594 -3.035156 27.847656 -2.980469 C 27.867188 -2.972656 27.882812 -2.96875 27.890625 -2.964844 C 27.867188 -2.972656 27.835938 -2.976562 27.796875 -2.984375 C 27.445312 -3.050781 26.945312 -3.082031 26.292969 -3.082031 L 20.496094 -3.082031 L 20.496094 -9.425781 L 26.839844 -9.425781 L 26.839844 6.34375 L -2.863281 6.34375 Z M 9.824219 0 L 3.480469 0 L 3.480469 -6.34375 L 20.496094 -6.34375 L 20.496094 0 L 14.148438 0 L 14.148438 -15.769531 L 26.292969 -15.769531 C 27.707031 -15.769531 28.96875 -15.667969 30.074219 -15.46875 C 31.59375 -15.191406 32.910156 -14.707031 34.023438 -14.015625 C 35.230469 -13.261719 36.214844 -12.3125 36.976562 -11.160156 C 37.738281 -10.015625 38.230469 -8.742188 38.457031 -7.34375 L 32.191406 -6.332031 L 38.390625 -7.6875 L 38.75 -6.03125 C 38.984375 -4.871094 39.179688 -3.996094 39.335938 -3.398438 C 39.417969 -3.089844 39.476562 -2.902344 39.511719 -2.835938 L 33.835938 0 L 33.835938 -6.34375 L 50.703125 -6.34375 L 50.703125 0 L 44.730469 2.132812 C 44.378906 1.152344 44.070312 0.234375 43.804688 -0.621094 C 43.515625 -1.539062 43.238281 -2.578125 42.964844 -3.730469 L 42.542969 -5.378906 L 42.511719 -5.527344 C 42.273438 -6.667969 42.03125 -7.480469 41.78125 -7.964844 C 41.765625 -7.996094 41.75 -8.019531 41.738281 -8.039062 L 41.746094 -8.03125 C 41.777344 -7.992188 41.820312 -7.957031 41.867188 -7.925781 C 41.578125 -8.117188 41.050781 -8.316406 40.285156 -8.523438 L 35.613281 -9.800781 L 35.613281 -19.734375 L 40.519531 -20.875 C 41.960938 -21.210938 42.96875 -21.703125 43.539062 -22.351562 C 43.738281 -22.582031 43.886719 -22.832031 43.984375 -23.101562 C 44.105469 -23.445312 44.167969 -23.867188 44.167969 -24.363281 C 44.167969 -25.230469 43.9375 -25.984375 43.484375 -26.625 C 43.3125 -26.863281 43.035156 -27.113281 42.65625 -27.367188 C 42.078125 -27.753906 41.332031 -28.105469 40.414062 -28.425781 C 38.242188 -29.1875 35.082031 -29.570312 30.933594 -29.570312 L 3.480469 -29.570312 L 3.480469 -35.914062 L 9.824219 -35.914062 Z M 20.496094 -24.953125 L 28.855469 -24.953125 C 29.078125 -24.953125 29.21875 -24.960938 29.273438 -24.976562 C 29.050781 -24.914062 28.808594 -24.785156 28.554688 -24.582031 C 28.164062 -24.273438 27.859375 -23.882812 27.644531 -23.40625 C 27.476562 -23.035156 27.394531 -22.695312 27.394531 -22.378906 C 27.394531 -21.953125 27.507812 -21.507812 27.738281 -21.042969 C 28.027344 -20.460938 28.425781 -20 28.9375 -19.652344 C 29.164062 -19.503906 29.351562 -19.410156 29.503906 -19.375 C 29.375 -19.402344 29.160156 -19.417969 28.855469 -19.417969 L 20.496094 -19.417969 L 20.496094 -25.761719 L 26.839844 -25.761719 L 26.839844 -18.609375 L 20.496094 -18.609375 Z M 14.148438 -12.265625 L 14.148438 -32.109375 L 28.855469 -32.109375 C 31.726562 -32.109375 34.117188 -31.464844 36.023438 -30.179688 C 37.375 -29.273438 38.402344 -28.105469 39.109375 -26.675781 C 39.757812 -25.367188 40.082031 -23.933594 40.082031 -22.378906 C 40.082031 -20.871094 39.789062 -19.46875 39.207031 -18.175781 C 38.570312 -16.773438 37.640625 -15.585938 36.410156 -14.617188 C 34.421875 -13.050781 31.902344 -12.265625 28.855469 -12.265625 Z M 14.148438 -12.265625 "/></g></g><g style="fill:#1e5175;fill-opacity:1;"><g transform="translate(402.20747, 81.109188)"><path style="stroke:none" d="M -2.863281 0 L -2.863281 -42.257812 L 22.847656 -42.257812 L 43.804688 -21.136719 L 44.476562 -20.214844 L 39.34375 -16.484375 L 33 -16.484375 L 33 -42.257812 L 60.480469 -42.257812 L 60.480469 6.34375 L 34.824219 6.34375 L 13.839844 -14.746094 L 13.261719 -15.488281 L 18.269531 -19.382812 L 24.617188 -19.382812 L 24.617188 6.34375 L -2.863281 6.34375 Z M 9.824219 0 L 3.480469 0 L 3.480469 -6.34375 L 18.269531 -6.34375 L 18.269531 0 L 11.925781 0 L 11.925781 -37.875 L 23.617188 -22.84375 L 18.609375 -18.949219 L 23.105469 -23.421875 L 41.957031 -4.476562 L 37.460938 0 L 37.460938 -6.34375 L 54.136719 -6.34375 L 54.136719 0 L 47.792969 0 L 47.792969 -35.914062 L 54.136719 -35.914062 L 54.136719 -29.570312 L 39.34375 -29.570312 L 39.34375 -35.914062 L 45.691406 -35.914062 L 45.691406 3.027344 L 33.828125 -13.28125 L 38.957031 -17.015625 L 34.457031 -12.546875 L 15.699219 -31.445312 L 20.203125 -35.914062 L 20.203125 -29.570312 L 3.480469 -29.570312 L 3.480469 -35.914062 L 9.824219 -35.914062 Z M 9.824219 0 "/></g></g><g style="fill:#c1ff72;fill-opacity:1;"><g transform="translate(215.179468, 81.109188)"><path style="stroke:none" d="M 3.484375 0 L 3.484375 -35.921875 L 20.5 -35.921875 L 20.5 -10.203125 L 40.265625 -10.203125 L 40.265625 0 Z M 3.484375 0 "/></g></g><g style="fill:#c1ff72;fill-opacity:1;"><g transform="translate(254.663088, 81.109188)"><path style="stroke:none" d="M 3.484375 0 L 3.484375 -35.921875 L 43.65625 -35.921875 L 43.65625 -26.0625 L 20.5 -26.0625 L 20.5 -22.140625 L 41.578125 -22.140625 L 41.578125 -14.40625 L 20.5 -14.40625 L 20.5 -9.859375 L 44.1875 -9.859375 L 44.1875 0 Z M 3.484375 0 "/></g></g><g style="fill:#c1ff72;fill-opacity:1;"><g transform="translate(298.302923, 81.109188)"><path style="stroke:none" d="M 0.296875 0 L 15.71875 -35.921875 L 39.984375 -35.921875 L 55.734375 0 L 37.46875 0 L 35.484375 -5.84375 L 20.5 -5.84375 L 18.515625 0 Z M 23.5 -14.640625 L 32.484375 -14.640625 L 28.421875 -26.640625 L 28.09375 -27.9375 L 27.890625 -27.9375 L 27.5625 -26.640625 Z M 23.5 -14.640625 "/></g></g><g style="fill:#c1ff72;fill-opacity:1;"><g transform="translate(352.333303, 81.109188)"><path style="stroke:none" d="M 3.484375 0 L 3.484375 -35.921875 L 30.9375 -35.921875 C 35.800781 -35.921875 39.660156 -35.421875 42.515625 -34.421875 C 45.367188 -33.421875 47.414062 -32.050781 48.65625 -30.3125 C 49.894531 -28.570312 50.515625 -26.585938 50.515625 -24.359375 C 50.515625 -21.910156 49.78125 -19.847656 48.3125 -18.171875 C 46.851562 -16.492188 44.738281 -15.335938 41.96875 -14.703125 L 41.96875 -14.640625 C 43.382812 -14.253906 44.519531 -13.78125 45.375 -13.21875 C 46.226562 -12.65625 46.910156 -11.875 47.421875 -10.875 C 47.941406 -9.875 48.378906 -8.519531 48.734375 -6.8125 L 49.109375 -5.3125 C 49.367188 -4.21875 49.617188 -3.285156 49.859375 -2.515625 C 50.109375 -1.742188 50.394531 -0.90625 50.71875 0 L 33.84375 0 C 33.613281 -0.445312 33.398438 -1.035156 33.203125 -1.765625 C 33.015625 -2.492188 32.789062 -3.5 32.53125 -4.78125 L 32.203125 -6.328125 C 32.035156 -7.328125 31.523438 -8.09375 30.671875 -8.625 C 29.816406 -9.15625 28.359375 -9.421875 26.296875 -9.421875 L 20.5 -9.421875 L 20.5 0 Z M 20.5 -18.609375 L 28.859375 -18.609375 C 30.441406 -18.609375 31.648438 -18.9375 32.484375 -19.59375 C 33.328125 -20.257812 33.75 -21.191406 33.75 -22.390625 C 33.75 -23.515625 33.328125 -24.359375 32.484375 -24.921875 C 31.648438 -25.484375 30.441406 -25.765625 28.859375 -25.765625 L 20.5 -25.765625 Z M 20.5 -18.609375 "/></g></g><g style="fill:#c1ff72;fill-opacity:1;"><g transform="translate(402.20747, 81.109188)"><path style="stroke:none" d="M 3.484375 0 L 3.484375 -35.921875 L 20.203125 -35.921875 L 38.96875 -17.015625 L 39.359375 -16.484375 L 39.359375 -35.921875 L 54.140625 -35.921875 L 54.140625 0 L 37.46875 0 L 18.609375 -18.953125 L 18.28125 -19.390625 L 18.28125 0 Z M 3.484375 0 "/></g></g><g style="fill:#1e5175;fill-opacity:1;"><g transform="translate(82.547518, 139.317551)"><path style="stroke:none" d="M -2.898438 0 L -2.898438 -53.457031 L 62.824219 -53.457031 L 62.824219 -25.695312 L 26.300781 -25.695312 L 26.300781 -33.0625 L 33.667969 -33.0625 L 33.667969 -26.796875 L 26.300781 -26.796875 L 26.300781 -34.164062 L 59.722656 -34.164062 L 59.722656 -7.957031 L 26.300781 -7.957031 L 26.300781 -15.320312 L 33.667969 -15.320312 L 33.667969 7.367188 L -2.898438 7.367188 Z M 11.832031 0 L 4.464844 0 L 4.464844 -7.367188 L 26.300781 -7.367188 L 26.300781 0 L 18.933594 0 L 18.933594 -22.6875 L 52.355469 -22.6875 L 52.355469 -15.320312 L 44.988281 -15.320312 L 44.988281 -26.796875 L 52.355469 -26.796875 L 52.355469 -19.429688 L 18.933594 -19.429688 L 18.933594 -40.429688 L 55.457031 -40.429688 L 55.457031 -33.0625 L 48.089844 -33.0625 L 48.089844 -46.089844 L 55.457031 -46.089844 L 55.457031 -38.722656 L 4.464844 -38.722656 L 4.464844 -46.089844 L 11.832031 -46.089844 Z M 11.832031 0 "/></g></g><g style="fill:#1e5175;fill-opacity:1;"><g transform="translate(136.447863, 139.317551)"><path style="stroke:none" d="M -2.898438 0 L -2.898438 -53.457031 L 39.699219 -53.457031 C 46.78125 -53.457031 52.542969 -52.675781 56.992188 -51.121094 C 62.121094 -49.320312 65.9375 -46.671875 68.433594 -43.171875 C 70.9375 -39.65625 72.191406 -35.6875 72.191406 -31.265625 C 72.191406 -28.847656 71.8125 -26.574219 71.058594 -24.453125 C 70.273438 -22.246094 69.101562 -20.253906 67.546875 -18.472656 C 64.621094 -15.132812 60.609375 -12.867188 55.511719 -11.683594 L 53.84375 -18.859375 L 61.210938 -18.859375 L 61.210938 -18.796875 L 53.84375 -18.796875 L 55.78125 -25.902344 C 58.359375 -25.199219 60.523438 -24.269531 62.277344 -23.113281 C 64.441406 -21.683594 66.148438 -19.757812 67.398438 -17.335938 C 68.371094 -15.457031 69.148438 -13.09375 69.742188 -10.242188 L 62.527344 -8.746094 L 69.660156 -10.585938 L 70.15625 -8.664062 C 70.472656 -7.328125 70.757812 -6.246094 71.015625 -5.421875 C 71.296875 -4.523438 71.628906 -3.542969 72.007812 -2.476562 L 75.523438 7.367188 L 38.871094 7.367188 L 36.832031 3.292969 C 36.320312 2.269531 35.875 1.046875 35.5 -0.367188 C 35.210938 -1.445312 34.886719 -2.890625 34.523438 -4.695312 L 34.074219 -6.75 L 34.039062 -6.953125 C 34.105469 -6.546875 34.269531 -6.144531 34.53125 -5.753906 C 34.796875 -5.355469 35.105469 -5.042969 35.464844 -4.820312 C 35.664062 -4.695312 35.835938 -4.609375 35.988281 -4.558594 C 35.972656 -4.5625 35.914062 -4.574219 35.8125 -4.59375 C 35.3125 -4.683594 34.625 -4.730469 33.746094 -4.730469 L 26.300781 -4.730469 L 26.300781 -12.097656 L 33.667969 -12.097656 L 33.667969 7.367188 L -2.898438 7.367188 Z M 11.832031 0 L 4.464844 0 L 4.464844 -7.367188 L 26.300781 -7.367188 L 26.300781 0 L 18.933594 0 L 18.933594 -19.460938 L 33.746094 -19.460938 C 35.511719 -19.460938 37.082031 -19.335938 38.457031 -19.085938 C 40.3125 -18.75 41.910156 -18.160156 43.253906 -17.324219 C 44.707031 -16.421875 45.894531 -15.277344 46.808594 -13.894531 C 47.722656 -12.519531 48.3125 -10.988281 48.585938 -9.300781 L 41.3125 -8.125 L 48.507812 -9.699219 L 48.972656 -7.585938 C 49.269531 -6.082031 49.527344 -4.941406 49.734375 -4.164062 C 49.851562 -3.714844 49.945312 -3.425781 50.011719 -3.292969 L 43.421875 0 L 43.421875 -7.367188 L 65.070312 -7.367188 L 65.070312 0 L 58.132812 2.476562 C 57.6875 1.226562 57.292969 0.0585938 56.953125 -1.027344 C 56.59375 -2.1875 56.238281 -3.507812 55.890625 -4.984375 L 55.351562 -7.078125 L 55.316406 -7.25 C 54.996094 -8.785156 54.660156 -9.894531 54.308594 -10.578125 C 54.25 -10.6875 54.203125 -10.765625 54.15625 -10.816406 L 54.15625 -10.820312 C 53.71875 -11.109375 52.96875 -11.398438 51.90625 -11.6875 L 46.476562 -13.167969 L 46.476562 -24.707031 L 52.175781 -26.03125 C 54.191406 -26.5 55.617188 -27.214844 56.457031 -28.175781 C 57.125 -28.9375 57.457031 -29.964844 57.457031 -31.265625 C 57.457031 -32.546875 57.117188 -33.664062 56.4375 -34.617188 C 55.75 -35.582031 54.3125 -36.449219 52.121094 -37.214844 C 49.25 -38.21875 45.109375 -38.722656 39.699219 -38.722656 L 4.464844 -38.722656 L 4.464844 -46.089844 L 11.832031 -46.089844 Z M 26.300781 -31.25 L 37.03125 -31.25 C 37.386719 -31.25 37.632812 -31.269531 37.773438 -31.304688 C 37.585938 -31.253906 37.371094 -31.132812 37.125 -30.9375 C 36.722656 -30.621094 36.40625 -30.214844 36.183594 -29.714844 C 36.015625 -29.347656 35.933594 -29.015625 35.933594 -28.722656 C 35.933594 -28.296875 36.050781 -27.839844 36.292969 -27.351562 C 36.601562 -26.726562 37.027344 -26.230469 37.570312 -25.867188 C 37.78125 -25.726562 37.9375 -25.640625 38.042969 -25.617188 C 37.816406 -25.671875 37.480469 -25.695312 37.03125 -25.695312 L 26.300781 -25.695312 L 26.300781 -33.0625 L 33.667969 -33.0625 L 33.667969 -23.882812 L 26.300781 -23.882812 Z M 18.933594 -16.515625 L 18.933594 -40.429688 L 37.03125 -40.429688 C 40.558594 -40.429688 43.480469 -39.648438 45.800781 -38.089844 C 47.417969 -37 48.648438 -35.601562 49.496094 -33.890625 C 50.277344 -32.316406 50.664062 -30.59375 50.664062 -28.722656 C 50.664062 -26.898438 50.3125 -25.207031 49.605469 -23.644531 C 48.84375 -21.960938 47.726562 -20.535156 46.246094 -19.371094 C 43.832031 -17.46875 40.761719 -16.515625 37.03125 -16.515625 Z M 18.933594 -16.515625 "/></g></g><g style="fill:#1e5175;fill-opacity:1;"><g transform="translate(200.458457, 139.317551)"><path style="stroke:none" d="M 35.480469 8.730469 C 27.414062 8.730469 20.4375 7.648438 14.550781 5.488281 C 8.105469 3.121094 3.113281 -0.449219 -0.429688 -5.226562 C -4.0625 -10.128906 -5.878906 -15.996094 -5.878906 -22.828125 L -5.878906 -23.136719 C -5.878906 -29.96875 -4.0625 -35.835938 -0.429688 -40.738281 C 3.121094 -45.523438 8.136719 -49.089844 14.613281 -51.433594 C 20.511719 -53.570312 27.488281 -54.636719 35.542969 -54.636719 C 43.605469 -54.636719 50.574219 -53.566406 56.453125 -51.433594 C 62.90625 -49.085938 67.90625 -45.523438 71.453125 -40.738281 C 75.085938 -35.835938 76.90625 -29.96875 76.90625 -23.136719 L 76.90625 -22.828125 C 76.90625 -15.996094 75.085938 -10.128906 71.453125 -5.226562 C 67.914062 -0.449219 62.921875 3.121094 56.476562 5.488281 C 50.589844 7.648438 43.59375 8.730469 35.480469 8.730469 Z M 35.480469 -6 C 41.847656 -6 47.152344 -6.78125 51.398438 -8.339844 C 55.085938 -9.695312 57.824219 -11.582031 59.621094 -14.003906 C 61.320312 -16.296875 62.171875 -19.238281 62.171875 -22.828125 L 62.171875 -23.136719 C 62.171875 -26.726562 61.320312 -29.667969 59.621094 -31.964844 C 57.832031 -34.375 55.097656 -36.25 51.421875 -37.585938 C 47.167969 -39.128906 41.875 -39.902344 35.542969 -39.902344 C 29.210938 -39.902344 23.902344 -39.128906 19.628906 -37.582031 C 15.933594 -36.246094 13.191406 -34.371094 11.40625 -31.964844 C 9.707031 -29.667969 8.855469 -26.726562 8.855469 -23.136719 L 8.855469 -22.828125 C 8.855469 -19.238281 9.707031 -16.296875 11.40625 -14.003906 C 13.199219 -11.582031 15.941406 -9.695312 19.628906 -8.339844 C 23.875 -6.78125 29.160156 -6 35.480469 -6 Z M 30.9375 -22.828125 C 30.9375 -22.25 31 -21.820312 31.125 -21.535156 C 31.171875 -21.433594 31.25 -21.339844 31.363281 -21.25 C 32.203125 -20.597656 33.574219 -20.269531 35.480469 -20.269531 C 37.359375 -20.269531 38.707031 -20.597656 39.535156 -21.261719 C 39.6875 -21.382812 39.789062 -21.507812 39.847656 -21.636719 C 39.964844 -21.902344 40.027344 -22.300781 40.027344 -22.828125 L 40.027344 -23.136719 C 40.027344 -23.664062 39.96875 -24.054688 39.851562 -24.3125 C 39.800781 -24.425781 39.707031 -24.539062 39.566406 -24.648438 C 38.734375 -25.304688 37.375 -25.632812 35.480469 -25.632812 C 33.558594 -25.632812 32.175781 -25.308594 31.328125 -24.65625 C 31.230469 -24.578125 31.160156 -24.496094 31.121094 -24.410156 C 31 -24.136719 30.9375 -23.710938 30.9375 -23.136719 Z M 16.207031 -22.828125 L 16.207031 -23.136719 C 16.207031 -25.789062 16.6875 -28.203125 17.652344 -30.378906 C 18.699219 -32.742188 20.257812 -34.722656 22.328125 -36.320312 C 25.824219 -39.019531 30.210938 -40.367188 35.480469 -40.367188 C 40.785156 -40.367188 45.195312 -38.980469 48.703125 -36.207031 C 50.734375 -34.601562 52.269531 -32.636719 53.304688 -30.324219 C 54.273438 -28.152344 54.757812 -25.757812 54.757812 -23.136719 L 54.757812 -22.828125 C 54.757812 -20.214844 54.277344 -17.820312 53.308594 -15.644531 C 52.28125 -13.335938 50.757812 -11.371094 48.738281 -9.753906 C 45.222656 -6.941406 40.804688 -5.535156 35.480469 -5.535156 C 30.195312 -5.535156 25.796875 -6.902344 22.292969 -9.640625 C 20.238281 -11.246094 18.6875 -13.230469 17.648438 -15.589844 C 16.6875 -17.765625 16.207031 -20.179688 16.207031 -22.828125 Z M 16.207031 -22.828125 "/></g></g><g style="fill:#1e5175;fill-opacity:1;"><g transform="translate(268.872895, 139.317551)"><path style="stroke:none" d="M -2.898438 0 L -2.898438 -53.457031 L 28.996094 -53.457031 L 55.625 -26.625 L 56.453125 -25.484375 L 50.492188 -21.152344 L 43.128906 -21.152344 L 43.128906 -53.457031 L 76.84375 -53.457031 L 76.84375 7.367188 L 45.011719 7.367188 L 18.34375 -19.4375 L 17.632812 -20.351562 L 23.449219 -24.875 L 30.816406 -24.875 L 30.816406 7.367188 L -2.898438 7.367188 Z M 11.832031 0 L 4.464844 0 L 4.464844 -7.367188 L 23.449219 -7.367188 L 23.449219 0 L 16.082031 0 L 16.082031 -46.34375 L 29.695312 -28.839844 L 23.882812 -24.316406 L 29.105469 -29.511719 L 53.296875 -5.195312 L 48.074219 0 L 48.074219 -7.367188 L 69.476562 -7.367188 L 69.476562 0 L 62.109375 0 L 62.109375 -46.089844 L 69.476562 -46.089844 L 69.476562 -38.722656 L 50.492188 -38.722656 L 50.492188 -46.089844 L 57.859375 -46.089844 L 57.859375 1.5 L 44.039062 -17.503906 L 49.996094 -21.835938 L 44.769531 -16.644531 L 20.699219 -40.902344 L 25.929688 -46.089844 L 25.929688 -38.722656 L 4.464844 -38.722656 L 4.464844 -46.089844 L 11.832031 -46.089844 Z M 11.832031 0 "/></g></g><g style="fill:#1e5175;fill-opacity:1;"><g transform="translate(340.202552, 139.317551)"><path style="stroke:none" d="M 10.375 0 L 10.375 -32.816406 L 17.742188 -32.816406 L 17.742188 -25.449219 L -6.871094 -25.449219 L -6.871094 -53.457031 L 64.0625 -53.457031 L 64.0625 -25.449219 L 39.515625 -25.449219 L 39.515625 -32.816406 L 46.882812 -32.816406 L 46.882812 7.367188 L 10.375 7.367188 Z M 25.109375 0 L 17.742188 0 L 17.742188 -7.367188 L 39.515625 -7.367188 L 39.515625 0 L 32.148438 0 L 32.148438 -40.179688 L 56.699219 -40.179688 L 56.699219 -32.816406 L 49.332031 -32.816406 L 49.332031 -46.089844 L 56.699219 -46.089844 L 56.699219 -38.722656 L 0.496094 -38.722656 L 0.496094 -46.089844 L 7.863281 -46.089844 L 7.863281 -32.816406 L 0.496094 -32.816406 L 0.496094 -40.179688 L 25.109375 -40.179688 Z M 25.109375 0 "/></g></g><g style="fill:#1e5175;fill-opacity:1;"><g transform="translate(394.785205, 139.317551)"><path style="stroke:none" d="M -2.898438 0 L -2.898438 -53.457031 L 63.382812 -53.457031 L 63.382812 -26.070312 L 26.300781 -26.070312 L 26.300781 -33.433594 L 33.667969 -33.433594 L 33.667969 -28.410156 L 26.300781 -28.410156 L 26.300781 -35.777344 L 60.714844 -35.777344 L 60.714844 -11.117188 L 26.300781 -11.117188 L 26.300781 -18.484375 L 33.667969 -18.484375 L 33.667969 -12.65625 L 26.300781 -12.65625 L 26.300781 -20.019531 L 64.0625 -20.019531 L 64.0625 7.367188 L -2.898438 7.367188 Z M 11.832031 0 L 4.464844 0 L 4.464844 -7.367188 L 56.699219 -7.367188 L 56.699219 0 L 49.332031 0 L 49.332031 -12.65625 L 56.699219 -12.65625 L 56.699219 -5.289062 L 18.933594 -5.289062 L 18.933594 -25.851562 L 53.347656 -25.851562 L 53.347656 -18.484375 L 45.980469 -18.484375 L 45.980469 -28.410156 L 53.347656 -28.410156 L 53.347656 -21.042969 L 18.933594 -21.042969 L 18.933594 -40.800781 L 56.015625 -40.800781 L 56.015625 -33.433594 L 48.648438 -33.433594 L 48.648438 -46.089844 L 56.015625 -46.089844 L 56.015625 -38.722656 L 4.464844 -38.722656 L 4.464844 -46.089844 L 11.832031 -46.089844 Z M 11.832031 0 "/></g></g><g style="fill:#1e5175;fill-opacity:1;"><g transform="translate(450.794428, 139.317551)"><path style="stroke:none" d="M -2.898438 0 L -2.898438 -53.457031 L 28.996094 -53.457031 L 55.625 -26.625 L 56.453125 -25.484375 L 50.492188 -21.152344 L 43.128906 -21.152344 L 43.128906 -53.457031 L 76.84375 -53.457031 L 76.84375 7.367188 L 45.011719 7.367188 L 18.34375 -19.4375 L 17.632812 -20.351562 L 23.449219 -24.875 L 30.816406 -24.875 L 30.816406 7.367188 L -2.898438 7.367188 Z M 11.832031 0 L 4.464844 0 L 4.464844 -7.367188 L 23.449219 -7.367188 L 23.449219 0 L 16.082031 0 L 16.082031 -46.34375 L 29.695312 -28.839844 L 23.882812 -24.316406 L 29.105469 -29.511719 L 53.296875 -5.195312 L 48.074219 0 L 48.074219 -7.367188 L 69.476562 -7.367188 L 69.476562 0 L 62.109375 0 L 62.109375 -46.089844 L 69.476562 -46.089844 L 69.476562 -38.722656 L 50.492188 -38.722656 L 50.492188 -46.089844 L 57.859375 -46.089844 L 57.859375 1.5 L 44.039062 -17.503906 L 49.996094 -21.835938 L 44.769531 -16.644531 L 20.699219 -40.902344 L 25.929688 -46.089844 L 25.929688 -38.722656 L 4.464844 -38.722656 L 4.464844 -46.089844 L 11.832031 -46.089844 Z M 11.832031 0 "/></g></g><g style="fill:#1e5175;fill-opacity:1;"><g transform="translate(522.124062, 139.317551)"><path style="stroke:none" d="M -2.898438 0 L -2.898438 -53.457031 L 38.832031 -53.457031 C 47.085938 -53.457031 53.914062 -52.234375 59.324219 -49.796875 C 65.179688 -47.15625 69.535156 -43.433594 72.394531 -38.628906 C 75.152344 -33.996094 76.53125 -28.789062 76.53125 -23.015625 C 76.53125 -18.851562 75.8125 -14.949219 74.371094 -11.308594 C 72.84375 -7.449219 70.453125 -4.074219 67.199219 -1.1875 C 64.019531 1.632812 59.984375 3.789062 55.09375 5.277344 C 50.527344 6.671875 45.105469 7.367188 38.832031 7.367188 L -2.898438 7.367188 Z M 11.832031 0 L 4.464844 0 L 4.464844 -7.367188 L 38.832031 -7.367188 C 43.640625 -7.367188 47.628906 -7.847656 50.796875 -8.8125 C 53.636719 -9.679688 55.847656 -10.8125 57.421875 -12.210938 C 58.925781 -13.542969 60.007812 -15.046875 60.671875 -16.730469 C 61.421875 -18.628906 61.800781 -20.722656 61.800781 -23.015625 C 61.800781 -26.085938 61.109375 -28.78125 59.734375 -31.09375 C 58.457031 -33.238281 56.300781 -34.996094 53.265625 -36.367188 C 49.78125 -37.9375 44.972656 -38.722656 38.832031 -38.722656 L 4.464844 -38.722656 L 4.464844 -46.089844 L 11.832031 -46.089844 Z M 26.300781 -20.457031 L 35.046875 -20.457031 C 36.332031 -20.457031 37.410156 -20.566406 38.285156 -20.789062 C 38.855469 -20.9375 39.285156 -21.113281 39.574219 -21.324219 C 39.515625 -21.285156 39.46875 -21.234375 39.425781 -21.179688 L 39.417969 -21.1875 C 39.574219 -21.570312 39.652344 -22.179688 39.652344 -23.015625 C 39.652344 -23.878906 39.570312 -24.515625 39.40625 -24.921875 C 39.394531 -24.953125 39.382812 -24.976562 39.375 -24.992188 C 39.378906 -24.984375 39.386719 -24.972656 39.398438 -24.960938 C 39.4375 -24.910156 39.480469 -24.863281 39.535156 -24.824219 C 39.25 -25.03125 38.824219 -25.210938 38.257812 -25.355469 C 37.375 -25.582031 36.285156 -25.695312 34.984375 -25.695312 L 26.300781 -25.695312 L 26.300781 -33.0625 L 33.667969 -33.0625 L 33.667969 -13.089844 L 26.300781 -13.089844 Z M 18.933594 -5.722656 L 18.933594 -40.429688 L 34.984375 -40.429688 C 40.4375 -40.429688 44.855469 -39.191406 48.242188 -36.710938 C 50.414062 -35.117188 52.023438 -33.03125 53.066406 -30.441406 C 53.945312 -28.265625 54.386719 -25.789062 54.386719 -23.015625 C 54.386719 -20.25 53.941406 -17.78125 53.054688 -15.613281 C 52.003906 -13.035156 50.382812 -10.960938 48.203125 -9.382812 C 44.828125 -6.941406 40.441406 -5.722656 35.046875 -5.722656 Z M 18.933594 -5.722656 "/></g></g><g style="fill:#91c4f6;fill-opacity:1;"><g transform="translate(82.547518, 139.317551)"><path style="stroke:none" d="M 4.46875 0 L 4.46875 -46.09375 L 55.453125 -46.09375 L 55.453125 -33.0625 L 26.296875 -33.0625 L 26.296875 -26.796875 L 52.359375 -26.796875 L 52.359375 -15.328125 L 26.296875 -15.328125 L 26.296875 0 Z M 4.46875 0 "/></g></g><g style="fill:#91c4f6;fill-opacity:1;"><g transform="translate(136.447863, 139.317551)"><path style="stroke:none" d="M 4.46875 0 L 4.46875 -46.09375 L 39.703125 -46.09375 C 45.941406 -46.09375 50.890625 -45.453125 54.546875 -44.171875 C 58.210938 -42.890625 60.84375 -41.128906 62.4375 -38.890625 C 64.03125 -36.660156 64.828125 -34.117188 64.828125 -31.265625 C 64.828125 -28.117188 63.882812 -25.46875 62 -23.3125 C 60.113281 -21.164062 57.394531 -19.679688 53.84375 -18.859375 L 53.84375 -18.796875 C 55.664062 -18.296875 57.125 -17.679688 58.21875 -16.953125 C 59.3125 -16.234375 60.1875 -15.234375 60.84375 -13.953125 C 61.507812 -12.671875 62.070312 -10.9375 62.53125 -8.75 L 63.03125 -6.828125 C 63.351562 -5.421875 63.671875 -4.21875 63.984375 -3.21875 C 64.296875 -2.226562 64.660156 -1.15625 65.078125 0 L 43.421875 0 C 43.128906 -0.582031 42.859375 -1.335938 42.609375 -2.265625 C 42.367188 -3.191406 42.082031 -4.484375 41.75 -6.140625 L 41.3125 -8.125 C 41.101562 -9.40625 40.453125 -10.382812 39.359375 -11.0625 C 38.265625 -11.75 36.394531 -12.09375 33.75 -12.09375 L 26.296875 -12.09375 L 26.296875 0 Z M 26.296875 -23.875 L 37.03125 -23.875 C 39.0625 -23.875 40.613281 -24.296875 41.6875 -25.140625 C 42.757812 -25.992188 43.296875 -27.1875 43.296875 -28.71875 C 43.296875 -30.164062 42.757812 -31.25 41.6875 -31.96875 C 40.613281 -32.695312 39.0625 -33.0625 37.03125 -33.0625 L 26.296875 -33.0625 Z M 26.296875 -23.875 "/></g></g><g style="fill:#91c4f6;fill-opacity:1;"><g transform="translate(200.458457, 139.317551)"><path style="stroke:none" d="M 35.484375 1.359375 C 28.285156 1.359375 22.148438 0.429688 17.078125 -1.421875 C 12.015625 -3.285156 8.148438 -6.015625 5.484375 -9.609375 C 2.816406 -13.210938 1.484375 -17.617188 1.484375 -22.828125 L 1.484375 -23.140625 C 1.484375 -28.347656 2.816406 -32.75 5.484375 -36.34375 C 8.148438 -39.945312 12.023438 -42.664062 17.109375 -44.5 C 22.203125 -46.34375 28.347656 -47.265625 35.546875 -47.265625 C 42.742188 -47.265625 48.875 -46.34375 53.9375 -44.5 C 59 -42.664062 62.863281 -39.945312 65.53125 -36.34375 C 68.195312 -32.75 69.53125 -28.347656 69.53125 -23.140625 L 69.53125 -22.828125 C 69.53125 -17.617188 68.195312 -13.210938 65.53125 -9.609375 C 62.863281 -6.015625 59 -3.285156 53.9375 -1.421875 C 48.875 0.429688 42.722656 1.359375 35.484375 1.359375 Z M 23.578125 -22.828125 C 23.578125 -19.597656 24.660156 -17.132812 26.828125 -15.4375 C 28.992188 -13.75 31.878906 -12.90625 35.484375 -12.90625 C 39.078125 -12.90625 41.957031 -13.769531 44.125 -15.5 C 46.300781 -17.238281 47.390625 -19.679688 47.390625 -22.828125 L 47.390625 -23.140625 C 47.390625 -26.285156 46.300781 -28.710938 44.125 -30.421875 C 41.957031 -32.140625 39.078125 -33 35.484375 -33 C 31.878906 -33 28.992188 -32.160156 26.828125 -30.484375 C 24.660156 -28.804688 23.578125 -26.359375 23.578125 -23.140625 Z M 23.578125 -22.828125 "/></g></g><g style="fill:#91c4f6;fill-opacity:1;"><g transform="translate(268.872895, 139.317551)"><path style="stroke:none" d="M 4.46875 0 L 4.46875 -46.09375 L 25.921875 -46.09375 L 50 -21.828125 L 50.5 -21.15625 L 50.5 -46.09375 L 69.46875 -46.09375 L 69.46875 0 L 48.078125 0 L 23.875 -24.3125 L 23.453125 -24.875 L 23.453125 0 Z M 4.46875 0 "/></g></g><g style="fill:#91c4f6;fill-opacity:1;"><g transform="translate(340.202552, 139.317551)"><path style="stroke:none" d="M 17.734375 0 L 17.734375 -32.8125 L 0.5 -32.8125 L 0.5 -46.09375 L 56.703125 -46.09375 L 56.703125 -32.8125 L 39.515625 -32.8125 L 39.515625 0 Z M 17.734375 0 "/></g></g><g style="fill:#91c4f6;fill-opacity:1;"><g transform="translate(394.785205, 139.317551)"><path style="stroke:none" d="M 4.46875 0 L 4.46875 -46.09375 L 56.015625 -46.09375 L 56.015625 -33.4375 L 26.296875 -33.4375 L 26.296875 -28.40625 L 53.34375 -28.40625 L 53.34375 -18.484375 L 26.296875 -18.484375 L 26.296875 -12.65625 L 56.703125 -12.65625 L 56.703125 0 Z M 4.46875 0 "/></g></g><g style="fill:#91c4f6;fill-opacity:1;"><g transform="translate(450.794428, 139.317551)"><path style="stroke:none" d="M 4.46875 0 L 4.46875 -46.09375 L 25.921875 -46.09375 L 50 -21.828125 L 50.5 -21.15625 L 50.5 -46.09375 L 69.46875 -46.09375 L 69.46875 0 L 48.078125 0 L 23.875 -24.3125 L 23.453125 -24.875 L 23.453125 0 Z M 4.46875 0 "/></g></g><g style="fill:#91c4f6;fill-opacity:1;"><g transform="translate(522.124062, 139.317551)"><path style="stroke:none" d="M 4.46875 0 L 4.46875 -46.09375 L 38.828125 -46.09375 C 46.023438 -46.09375 51.847656 -45.085938 56.296875 -43.078125 C 60.742188 -41.078125 64 -38.335938 66.0625 -34.859375 C 68.132812 -31.390625 69.171875 -27.441406 69.171875 -23.015625 C 69.171875 -19.785156 68.617188 -16.785156 67.515625 -14.015625 C 66.421875 -11.242188 64.6875 -8.800781 62.3125 -6.6875 C 59.9375 -4.582031 56.8125 -2.941406 52.9375 -1.765625 C 49.070312 -0.585938 44.367188 0 38.828125 0 Z M 26.296875 -13.09375 L 35.046875 -13.09375 C 38.847656 -13.09375 41.789062 -13.84375 43.875 -15.34375 C 45.96875 -16.851562 47.015625 -19.410156 47.015625 -23.015625 C 47.015625 -26.648438 45.96875 -29.234375 43.875 -30.765625 C 41.789062 -32.296875 38.828125 -33.0625 34.984375 -33.0625 L 26.296875 -33.0625 Z M 26.296875 -13.09375 "/></g></g></g></svg>